<mxfile host="app.diagrams.net" modified="2024-07-17T00:50:54.904Z" agent="Mozilla/5.0 (Windows NT 10.0; Win64; x64) AppleWebKit/537.36 (KHTML, like Gecko) Chrome/126.0.0.0 Safari/537.36" etag="ZDiwFPuu65GHx7dE2C23" version="24.7.0" type="device">
  <diagram name="PÃ¡gina-1" id="wQPFGFYkarAZHqGb-2vD">
    <mxGraphModel dx="1912" dy="1029" grid="1" gridSize="10" guides="1" tooltips="1" connect="1" arrows="1" fold="1" page="1" pageScale="1" pageWidth="827" pageHeight="1169" math="0" shadow="0">
      <root>
        <mxCell id="0" />
        <mxCell id="1" parent="0" />
        <mxCell id="jFjf1O8naEyMeC0edOcx-21" value="Deploy Cluster Core AWS" style="swimlane;startSize=23;" vertex="1" parent="1">
          <mxGeometry x="13.33" y="300" width="1036.67" height="320" as="geometry" />
        </mxCell>
        <mxCell id="jFjf1O8naEyMeC0edOcx-33" value="" style="edgeStyle=orthogonalEdgeStyle;rounded=0;orthogonalLoop=1;jettySize=auto;html=1;" edge="1" parent="jFjf1O8naEyMeC0edOcx-21" source="jFjf1O8naEyMeC0edOcx-28" target="jFjf1O8naEyMeC0edOcx-32">
          <mxGeometry relative="1" as="geometry" />
        </mxCell>
        <mxCell id="jFjf1O8naEyMeC0edOcx-28" value="S3" style="outlineConnect=0;dashed=0;verticalLabelPosition=bottom;verticalAlign=top;align=center;html=1;shape=mxgraph.aws3.s3;fillColor=#F58534;gradientColor=none;" vertex="1" parent="jFjf1O8naEyMeC0edOcx-21">
          <mxGeometry x="91.67" y="61.5" width="76.5" height="93" as="geometry" />
        </mxCell>
        <mxCell id="jFjf1O8naEyMeC0edOcx-31" style="edgeStyle=orthogonalEdgeStyle;rounded=0;orthogonalLoop=1;jettySize=auto;html=1;" edge="1" parent="jFjf1O8naEyMeC0edOcx-21" source="jFjf1O8naEyMeC0edOcx-29" target="jFjf1O8naEyMeC0edOcx-28">
          <mxGeometry relative="1" as="geometry" />
        </mxCell>
        <mxCell id="jFjf1O8naEyMeC0edOcx-29" value="" style="ellipse;whiteSpace=wrap;html=1;aspect=fixed;fillColor=#d5e8d4;strokeColor=#82b366;strokeWidth=3;" vertex="1" parent="jFjf1O8naEyMeC0edOcx-21">
          <mxGeometry x="11.670000000000002" y="88" width="40" height="40" as="geometry" />
        </mxCell>
        <mxCell id="jFjf1O8naEyMeC0edOcx-30" value="" style="ellipse;whiteSpace=wrap;html=1;aspect=fixed;fillColor=#f8cecc;strokeColor=#b85450;strokeWidth=3;" vertex="1" parent="jFjf1O8naEyMeC0edOcx-21">
          <mxGeometry x="982.67" y="260" width="40" height="40" as="geometry" />
        </mxCell>
        <mxCell id="jFjf1O8naEyMeC0edOcx-36" style="edgeStyle=orthogonalEdgeStyle;rounded=0;orthogonalLoop=1;jettySize=auto;html=1;" edge="1" parent="jFjf1O8naEyMeC0edOcx-21" source="jFjf1O8naEyMeC0edOcx-32" target="jFjf1O8naEyMeC0edOcx-35">
          <mxGeometry relative="1" as="geometry" />
        </mxCell>
        <mxCell id="jFjf1O8naEyMeC0edOcx-32" value="set&lt;br&gt;cluster_name&lt;br&gt;cluster_version" style="whiteSpace=wrap;html=1;verticalAlign=top;dashed=0;" vertex="1" parent="jFjf1O8naEyMeC0edOcx-21">
          <mxGeometry x="194.67" y="80.5" width="98.58" height="55" as="geometry" />
        </mxCell>
        <mxCell id="jFjf1O8naEyMeC0edOcx-38" value="" style="edgeStyle=orthogonalEdgeStyle;rounded=0;orthogonalLoop=1;jettySize=auto;html=1;" edge="1" parent="jFjf1O8naEyMeC0edOcx-21" source="jFjf1O8naEyMeC0edOcx-35" target="jFjf1O8naEyMeC0edOcx-37">
          <mxGeometry relative="1" as="geometry" />
        </mxCell>
        <mxCell id="jFjf1O8naEyMeC0edOcx-69" style="edgeStyle=orthogonalEdgeStyle;rounded=0;orthogonalLoop=1;jettySize=auto;html=1;entryX=0;entryY=0.5;entryDx=0;entryDy=0;" edge="1" parent="jFjf1O8naEyMeC0edOcx-21" source="jFjf1O8naEyMeC0edOcx-35" target="jFjf1O8naEyMeC0edOcx-43">
          <mxGeometry relative="1" as="geometry" />
        </mxCell>
        <mxCell id="jFjf1O8naEyMeC0edOcx-70" style="edgeStyle=orthogonalEdgeStyle;rounded=0;orthogonalLoop=1;jettySize=auto;html=1;entryX=0;entryY=0.5;entryDx=0;entryDy=0;" edge="1" parent="jFjf1O8naEyMeC0edOcx-21" source="jFjf1O8naEyMeC0edOcx-35" target="jFjf1O8naEyMeC0edOcx-45">
          <mxGeometry relative="1" as="geometry" />
        </mxCell>
        <mxCell id="jFjf1O8naEyMeC0edOcx-71" style="edgeStyle=orthogonalEdgeStyle;rounded=0;orthogonalLoop=1;jettySize=auto;html=1;entryX=0;entryY=0.5;entryDx=0;entryDy=0;" edge="1" parent="jFjf1O8naEyMeC0edOcx-21" source="jFjf1O8naEyMeC0edOcx-35" target="jFjf1O8naEyMeC0edOcx-44">
          <mxGeometry relative="1" as="geometry" />
        </mxCell>
        <mxCell id="jFjf1O8naEyMeC0edOcx-72" style="edgeStyle=orthogonalEdgeStyle;rounded=0;orthogonalLoop=1;jettySize=auto;html=1;entryX=0;entryY=0.5;entryDx=0;entryDy=0;" edge="1" parent="jFjf1O8naEyMeC0edOcx-21" source="jFjf1O8naEyMeC0edOcx-35" target="jFjf1O8naEyMeC0edOcx-56">
          <mxGeometry relative="1" as="geometry" />
        </mxCell>
        <mxCell id="jFjf1O8naEyMeC0edOcx-35" value="" style="outlineConnect=0;dashed=0;verticalLabelPosition=bottom;verticalAlign=top;align=center;html=1;shape=mxgraph.aws3.virtual_private_cloud;fillColor=#F58534;gradientColor=none;" vertex="1" parent="jFjf1O8naEyMeC0edOcx-21">
          <mxGeometry x="319.67" y="80.5" width="79.5" height="54" as="geometry" />
        </mxCell>
        <mxCell id="jFjf1O8naEyMeC0edOcx-73" style="edgeStyle=orthogonalEdgeStyle;rounded=0;orthogonalLoop=1;jettySize=auto;html=1;entryX=0.5;entryY=1;entryDx=0;entryDy=0;entryPerimeter=0;" edge="1" parent="jFjf1O8naEyMeC0edOcx-21" source="jFjf1O8naEyMeC0edOcx-37" target="jFjf1O8naEyMeC0edOcx-63">
          <mxGeometry relative="1" as="geometry">
            <mxPoint x="811.67" y="263" as="targetPoint" />
            <Array as="points">
              <mxPoint x="359" y="313" />
              <mxPoint x="693" y="313" />
            </Array>
          </mxGeometry>
        </mxCell>
        <mxCell id="jFjf1O8naEyMeC0edOcx-37" value="Internet&lt;br&gt;Gateway" style="sketch=0;outlineConnect=0;fontColor=#232F3E;gradientColor=none;fillColor=#F58534;strokeColor=none;dashed=0;verticalLabelPosition=middle;verticalAlign=middle;align=right;html=1;fontSize=12;fontStyle=0;aspect=fixed;pointerEvents=1;shape=mxgraph.aws4.internet_gateway;labelPosition=left;" vertex="1" parent="jFjf1O8naEyMeC0edOcx-21">
          <mxGeometry x="319.66999999999996" y="189" width="78" height="78" as="geometry" />
        </mxCell>
        <mxCell id="jFjf1O8naEyMeC0edOcx-43" value="Private subnet" style="points=[[0,0],[0.25,0],[0.5,0],[0.75,0],[1,0],[1,0.25],[1,0.5],[1,0.75],[1,1],[0.75,1],[0.5,1],[0.25,1],[0,1],[0,0.75],[0,0.5],[0,0.25]];outlineConnect=0;gradientColor=none;html=1;whiteSpace=wrap;fontSize=12;fontStyle=0;container=1;pointerEvents=0;collapsible=0;recursiveResize=0;shape=mxgraph.aws4.group;grIcon=mxgraph.aws4.group_security_group;grStroke=0;strokeColor=#00A4A6;fillColor=#E6F6F7;verticalAlign=top;align=left;spacingLeft=30;fontColor=#147EBA;dashed=0;" vertex="1" parent="jFjf1O8naEyMeC0edOcx-21">
          <mxGeometry x="438.66999999999996" y="61.5" width="180" height="50" as="geometry" />
        </mxCell>
        <mxCell id="jFjf1O8naEyMeC0edOcx-46" value="10.0.0.0/19" style="text;html=1;align=center;verticalAlign=middle;resizable=0;points=[];autosize=1;strokeColor=none;fillColor=none;" vertex="1" parent="jFjf1O8naEyMeC0edOcx-43">
          <mxGeometry x="99.99999999999989" y="20" width="80" height="30" as="geometry" />
        </mxCell>
        <mxCell id="jFjf1O8naEyMeC0edOcx-48" value="us-east-1a" style="text;html=1;align=center;verticalAlign=middle;whiteSpace=wrap;rounded=0;" vertex="1" parent="jFjf1O8naEyMeC0edOcx-43">
          <mxGeometry x="39.999999999999886" y="20" width="60" height="30" as="geometry" />
        </mxCell>
        <mxCell id="jFjf1O8naEyMeC0edOcx-44" value="Public subnet" style="points=[[0,0],[0.25,0],[0.5,0],[0.75,0],[1,0],[1,0.25],[1,0.5],[1,0.75],[1,1],[0.75,1],[0.5,1],[0.25,1],[0,1],[0,0.75],[0,0.5],[0,0.25]];outlineConnect=0;gradientColor=none;html=1;whiteSpace=wrap;fontSize=12;fontStyle=0;container=1;pointerEvents=0;collapsible=0;recursiveResize=0;shape=mxgraph.aws4.group;grIcon=mxgraph.aws4.group_security_group;grStroke=0;strokeColor=#7AA116;fillColor=#F2F6E8;verticalAlign=top;align=left;spacingLeft=30;fontColor=#248814;dashed=0;" vertex="1" parent="jFjf1O8naEyMeC0edOcx-21">
          <mxGeometry x="438.66999999999996" y="189" width="182.32999999999993" height="50" as="geometry" />
        </mxCell>
        <mxCell id="jFjf1O8naEyMeC0edOcx-54" value="10.0.64.0/19" style="text;html=1;align=center;verticalAlign=middle;resizable=0;points=[];autosize=1;strokeColor=none;fillColor=none;" vertex="1" parent="jFjf1O8naEyMeC0edOcx-44">
          <mxGeometry x="92.32999999999993" y="20" width="90" height="30" as="geometry" />
        </mxCell>
        <mxCell id="jFjf1O8naEyMeC0edOcx-55" value="us-east-1a" style="text;html=1;align=center;verticalAlign=middle;whiteSpace=wrap;rounded=0;" vertex="1" parent="jFjf1O8naEyMeC0edOcx-44">
          <mxGeometry x="32.33000000000004" y="20" width="60" height="30" as="geometry" />
        </mxCell>
        <mxCell id="jFjf1O8naEyMeC0edOcx-68" value="" style="outlineConnect=0;dashed=0;verticalLabelPosition=bottom;verticalAlign=top;align=center;html=1;shape=mxgraph.aws3.classic_load_balancer;fillColor=#F58534;gradientColor=none;" vertex="1" parent="jFjf1O8naEyMeC0edOcx-44">
          <mxGeometry x="160" y="4" width="20" height="20" as="geometry" />
        </mxCell>
        <mxCell id="jFjf1O8naEyMeC0edOcx-77" style="edgeStyle=orthogonalEdgeStyle;rounded=0;orthogonalLoop=1;jettySize=auto;html=1;" edge="1" parent="jFjf1O8naEyMeC0edOcx-21" source="jFjf1O8naEyMeC0edOcx-45" target="jFjf1O8naEyMeC0edOcx-74">
          <mxGeometry relative="1" as="geometry" />
        </mxCell>
        <mxCell id="jFjf1O8naEyMeC0edOcx-45" value="Private subnet" style="points=[[0,0],[0.25,0],[0.5,0],[0.75,0],[1,0],[1,0.25],[1,0.5],[1,0.75],[1,1],[0.75,1],[0.5,1],[0.25,1],[0,1],[0,0.75],[0,0.5],[0,0.25]];outlineConnect=0;gradientColor=none;html=1;whiteSpace=wrap;fontSize=12;fontStyle=0;container=1;pointerEvents=0;collapsible=0;recursiveResize=0;shape=mxgraph.aws4.group;grIcon=mxgraph.aws4.group_security_group;grStroke=0;strokeColor=#00A4A6;fillColor=#E6F6F7;verticalAlign=top;align=left;spacingLeft=30;fontColor=#147EBA;dashed=0;" vertex="1" parent="jFjf1O8naEyMeC0edOcx-21">
          <mxGeometry x="438.66999999999996" y="125" width="180" height="50" as="geometry" />
        </mxCell>
        <mxCell id="jFjf1O8naEyMeC0edOcx-47" value="10.0.32.0/19" style="text;html=1;align=center;verticalAlign=middle;resizable=0;points=[];autosize=1;strokeColor=none;fillColor=none;" vertex="1" parent="jFjf1O8naEyMeC0edOcx-45">
          <mxGeometry x="93.32999999999988" y="20" width="90" height="30" as="geometry" />
        </mxCell>
        <mxCell id="jFjf1O8naEyMeC0edOcx-52" value="us-east-1b" style="text;html=1;align=center;verticalAlign=middle;whiteSpace=wrap;rounded=0;" vertex="1" parent="jFjf1O8naEyMeC0edOcx-45">
          <mxGeometry x="33.33" y="20" width="60" height="30" as="geometry" />
        </mxCell>
        <mxCell id="jFjf1O8naEyMeC0edOcx-56" value="Public subnet" style="points=[[0,0],[0.25,0],[0.5,0],[0.75,0],[1,0],[1,0.25],[1,0.5],[1,0.75],[1,1],[0.75,1],[0.5,1],[0.25,1],[0,1],[0,0.75],[0,0.5],[0,0.25]];outlineConnect=0;gradientColor=none;html=1;whiteSpace=wrap;fontSize=12;fontStyle=0;container=1;pointerEvents=0;collapsible=0;recursiveResize=0;shape=mxgraph.aws4.group;grIcon=mxgraph.aws4.group_security_group;grStroke=0;strokeColor=#7AA116;fillColor=#F2F6E8;verticalAlign=top;align=left;spacingLeft=30;fontColor=#248814;dashed=0;" vertex="1" parent="jFjf1O8naEyMeC0edOcx-21">
          <mxGeometry x="438.66999999999996" y="253" width="182.32999999999993" height="50" as="geometry" />
        </mxCell>
        <mxCell id="jFjf1O8naEyMeC0edOcx-57" value="10.0.96.0/19" style="text;html=1;align=center;verticalAlign=middle;resizable=0;points=[];autosize=1;strokeColor=none;fillColor=none;" vertex="1" parent="jFjf1O8naEyMeC0edOcx-56">
          <mxGeometry x="92.32999999999993" y="20" width="90" height="30" as="geometry" />
        </mxCell>
        <mxCell id="jFjf1O8naEyMeC0edOcx-58" value="us-east-1b" style="text;html=1;align=center;verticalAlign=middle;whiteSpace=wrap;rounded=0;" vertex="1" parent="jFjf1O8naEyMeC0edOcx-56">
          <mxGeometry x="32.33000000000004" y="20" width="60" height="30" as="geometry" />
        </mxCell>
        <mxCell id="jFjf1O8naEyMeC0edOcx-67" value="" style="outlineConnect=0;dashed=0;verticalLabelPosition=bottom;verticalAlign=top;align=center;html=1;shape=mxgraph.aws3.classic_load_balancer;fillColor=#F58534;gradientColor=none;" vertex="1" parent="jFjf1O8naEyMeC0edOcx-56">
          <mxGeometry x="160" y="5" width="20" height="20" as="geometry" />
        </mxCell>
        <mxCell id="jFjf1O8naEyMeC0edOcx-75" value="" style="edgeStyle=orthogonalEdgeStyle;rounded=0;orthogonalLoop=1;jettySize=auto;html=1;" edge="1" parent="jFjf1O8naEyMeC0edOcx-21" source="jFjf1O8naEyMeC0edOcx-63" target="jFjf1O8naEyMeC0edOcx-74">
          <mxGeometry relative="1" as="geometry" />
        </mxCell>
        <mxCell id="jFjf1O8naEyMeC0edOcx-63" value="&lt;div&gt;NAT&lt;br&gt;Gateway&lt;/div&gt;" style="outlineConnect=0;dashed=0;verticalLabelPosition=top;verticalAlign=bottom;align=center;html=1;shape=mxgraph.aws3.vpc_nat_gateway;fillColor=#F58534;gradientColor=none;labelPosition=center;" vertex="1" parent="jFjf1O8naEyMeC0edOcx-21">
          <mxGeometry x="658.67" y="188" width="69" height="72" as="geometry" />
        </mxCell>
        <mxCell id="jFjf1O8naEyMeC0edOcx-64" value="" style="edgeStyle=orthogonalEdgeStyle;rounded=0;orthogonalLoop=1;jettySize=auto;html=1;" edge="1" parent="jFjf1O8naEyMeC0edOcx-21" source="jFjf1O8naEyMeC0edOcx-54" target="jFjf1O8naEyMeC0edOcx-63">
          <mxGeometry relative="1" as="geometry" />
        </mxCell>
        <mxCell id="jFjf1O8naEyMeC0edOcx-85" value="" style="edgeStyle=orthogonalEdgeStyle;rounded=0;orthogonalLoop=1;jettySize=auto;html=1;" edge="1" parent="jFjf1O8naEyMeC0edOcx-21" source="jFjf1O8naEyMeC0edOcx-74" target="jFjf1O8naEyMeC0edOcx-82">
          <mxGeometry relative="1" as="geometry" />
        </mxCell>
        <mxCell id="jFjf1O8naEyMeC0edOcx-74" value="Route&lt;br&gt;Table" style="outlineConnect=0;dashed=0;verticalLabelPosition=bottom;verticalAlign=top;align=center;html=1;shape=mxgraph.aws3.route_table;fillColor=#F58536;gradientColor=none;" vertex="1" parent="jFjf1O8naEyMeC0edOcx-21">
          <mxGeometry x="751.67" y="189.5" width="75" height="69" as="geometry" />
        </mxCell>
        <mxCell id="jFjf1O8naEyMeC0edOcx-76" style="edgeStyle=orthogonalEdgeStyle;rounded=0;orthogonalLoop=1;jettySize=auto;html=1;entryX=0.5;entryY=0;entryDx=0;entryDy=0;entryPerimeter=0;" edge="1" parent="jFjf1O8naEyMeC0edOcx-21" source="jFjf1O8naEyMeC0edOcx-43" target="jFjf1O8naEyMeC0edOcx-74">
          <mxGeometry relative="1" as="geometry" />
        </mxCell>
        <mxCell id="jFjf1O8naEyMeC0edOcx-78" style="edgeStyle=orthogonalEdgeStyle;rounded=0;orthogonalLoop=1;jettySize=auto;html=1;entryX=0;entryY=0.5;entryDx=0;entryDy=0;entryPerimeter=0;" edge="1" parent="jFjf1O8naEyMeC0edOcx-21" source="jFjf1O8naEyMeC0edOcx-57" target="jFjf1O8naEyMeC0edOcx-63">
          <mxGeometry relative="1" as="geometry">
            <Array as="points">
              <mxPoint x="639" y="288" />
              <mxPoint x="639" y="224" />
            </Array>
          </mxGeometry>
        </mxCell>
        <mxCell id="jFjf1O8naEyMeC0edOcx-89" value="" style="edgeStyle=orthogonalEdgeStyle;rounded=0;orthogonalLoop=1;jettySize=auto;html=1;" edge="1" parent="jFjf1O8naEyMeC0edOcx-21" source="jFjf1O8naEyMeC0edOcx-81" target="jFjf1O8naEyMeC0edOcx-88">
          <mxGeometry relative="1" as="geometry" />
        </mxCell>
        <mxCell id="jFjf1O8naEyMeC0edOcx-81" value="EKS" style="sketch=0;points=[[0,0,0],[0.25,0,0],[0.5,0,0],[0.75,0,0],[1,0,0],[0,1,0],[0.25,1,0],[0.5,1,0],[0.75,1,0],[1,1,0],[0,0.25,0],[0,0.5,0],[0,0.75,0],[1,0.25,0],[1,0.5,0],[1,0.75,0]];outlineConnect=0;fontColor=#232F3E;fillColor=#ED7100;strokeColor=#ffffff;dashed=0;verticalLabelPosition=top;verticalAlign=bottom;align=center;html=1;fontSize=12;fontStyle=0;aspect=fixed;shape=mxgraph.aws4.resourceIcon;resIcon=mxgraph.aws4.eks_anywhere;labelPosition=center;" vertex="1" parent="jFjf1O8naEyMeC0edOcx-21">
          <mxGeometry x="843.67" y="61.5" width="78" height="78" as="geometry" />
        </mxCell>
        <mxCell id="jFjf1O8naEyMeC0edOcx-86" value="" style="edgeStyle=orthogonalEdgeStyle;rounded=0;orthogonalLoop=1;jettySize=auto;html=1;" edge="1" parent="jFjf1O8naEyMeC0edOcx-21" source="jFjf1O8naEyMeC0edOcx-82" target="jFjf1O8naEyMeC0edOcx-81">
          <mxGeometry relative="1" as="geometry" />
        </mxCell>
        <mxCell id="jFjf1O8naEyMeC0edOcx-82" value="IAM&lt;br&gt;&lt;i&gt;&lt;font color=&quot;#4d4d4d&quot; style=&quot;font-size: 10px;&quot;&gt;AmazonEKSClusterPolicy&lt;/font&gt;&lt;/i&gt;" style="outlineConnect=0;dashed=0;verticalLabelPosition=bottom;verticalAlign=top;align=center;html=1;shape=mxgraph.aws3.iam;fillColor=#F58534;gradientColor=none;labelPosition=center;" vertex="1" parent="jFjf1O8naEyMeC0edOcx-21">
          <mxGeometry x="861.67" y="183.5" width="42" height="81" as="geometry" />
        </mxCell>
        <mxCell id="jFjf1O8naEyMeC0edOcx-91" value="" style="edgeStyle=orthogonalEdgeStyle;rounded=0;orthogonalLoop=1;jettySize=auto;html=1;" edge="1" parent="jFjf1O8naEyMeC0edOcx-21" source="jFjf1O8naEyMeC0edOcx-88" target="jFjf1O8naEyMeC0edOcx-90">
          <mxGeometry relative="1" as="geometry" />
        </mxCell>
        <mxCell id="jFjf1O8naEyMeC0edOcx-88" value="IAM&lt;br&gt;&lt;font color=&quot;#4d4d4d&quot;&gt;&lt;span style=&quot;font-size: 10px;&quot;&gt;&lt;i&gt;Nodes&lt;/i&gt;&lt;/span&gt;&lt;/font&gt;" style="outlineConnect=0;dashed=0;verticalLabelPosition=top;verticalAlign=bottom;align=center;html=1;shape=mxgraph.aws3.iam;fillColor=#F58534;gradientColor=none;labelPosition=center;" vertex="1" parent="jFjf1O8naEyMeC0edOcx-21">
          <mxGeometry x="981.67" y="60" width="42" height="81" as="geometry" />
        </mxCell>
        <mxCell id="jFjf1O8naEyMeC0edOcx-92" value="" style="edgeStyle=orthogonalEdgeStyle;rounded=0;orthogonalLoop=1;jettySize=auto;html=1;" edge="1" parent="jFjf1O8naEyMeC0edOcx-21" source="jFjf1O8naEyMeC0edOcx-90" target="jFjf1O8naEyMeC0edOcx-30">
          <mxGeometry relative="1" as="geometry" />
        </mxCell>
        <mxCell id="jFjf1O8naEyMeC0edOcx-90" value="Node&lt;br&gt;Group" style="aspect=fixed;sketch=0;html=1;dashed=0;whitespace=wrap;verticalLabelPosition=middle;verticalAlign=middle;fillColor=#F58534;strokeColor=#ffffff;points=[[0.005,0.63,0],[0.1,0.2,0],[0.9,0.2,0],[0.5,0,0],[0.995,0.63,0],[0.72,0.99,0],[0.5,1,0],[0.28,0.99,0]];shape=mxgraph.kubernetes.icon2;prIcon=node;labelPosition=left;align=right;" vertex="1" parent="jFjf1O8naEyMeC0edOcx-21">
          <mxGeometry x="977.67" y="191" width="50" height="48" as="geometry" />
        </mxCell>
        <mxCell id="jFjf1O8naEyMeC0edOcx-27" value="Workflow Github Actions" style="swimlane;" vertex="1" parent="1">
          <mxGeometry x="13.33" y="99" width="1036.67" height="180" as="geometry" />
        </mxCell>
        <mxCell id="jFjf1O8naEyMeC0edOcx-1" style="edgeStyle=orthogonalEdgeStyle;rounded=0;orthogonalLoop=1;jettySize=auto;html=1;" edge="1" parent="jFjf1O8naEyMeC0edOcx-27" source="jFjf1O8naEyMeC0edOcx-3" target="jFjf1O8naEyMeC0edOcx-12">
          <mxGeometry relative="1" as="geometry" />
        </mxCell>
        <mxCell id="jFjf1O8naEyMeC0edOcx-2" value="Merge" style="edgeLabel;html=1;align=center;verticalAlign=middle;resizable=0;points=[];" connectable="0" vertex="1" parent="jFjf1O8naEyMeC0edOcx-1">
          <mxGeometry x="0.0847" y="1" relative="1" as="geometry">
            <mxPoint x="-9" y="1" as="offset" />
          </mxGeometry>
        </mxCell>
        <mxCell id="jFjf1O8naEyMeC0edOcx-3" value="Github&lt;br&gt;develop" style="dashed=0;outlineConnect=0;html=1;align=center;labelPosition=center;verticalLabelPosition=bottom;verticalAlign=top;shape=mxgraph.weblogos.github" vertex="1" parent="jFjf1O8naEyMeC0edOcx-27">
          <mxGeometry x="319.34000000000003" y="52.5" width="75" height="75" as="geometry" />
        </mxCell>
        <mxCell id="jFjf1O8naEyMeC0edOcx-4" style="edgeStyle=orthogonalEdgeStyle;rounded=0;orthogonalLoop=1;jettySize=auto;html=1;" edge="1" parent="jFjf1O8naEyMeC0edOcx-27" source="jFjf1O8naEyMeC0edOcx-13" target="jFjf1O8naEyMeC0edOcx-3">
          <mxGeometry relative="1" as="geometry">
            <mxPoint x="411.34" y="90" as="sourcePoint" />
          </mxGeometry>
        </mxCell>
        <mxCell id="jFjf1O8naEyMeC0edOcx-5" value="Push" style="edgeLabel;html=1;align=center;verticalAlign=middle;resizable=0;points=[];" connectable="0" vertex="1" parent="jFjf1O8naEyMeC0edOcx-4">
          <mxGeometry x="-0.0164" relative="1" as="geometry">
            <mxPoint y="1" as="offset" />
          </mxGeometry>
        </mxCell>
        <mxCell id="jFjf1O8naEyMeC0edOcx-9" value="Github Actions" style="shape=image;verticalLabelPosition=bottom;labelBackgroundColor=default;verticalAlign=top;aspect=fixed;imageAspect=0;image=data:image/webp,UklGRnQzAABXRUJQVlA4WAoAAAAYAAAAFwEAFwEAQUxQSCUQAAAB8AP/nxrZ7v91cEHBBAoMCgwynqkyyXi2yqQqw65RU3VhzHOqDGueNU5gGFUZFBjGrMCgwLBmmcfcgWH8QQWG+bACwwQGBRMomKAv7Pb73e/ud+tEn4oIipLshm2Yg9O6rpzw0RQJgKA/QNBbeJKfy1ZdsF7KMj8Sg2/jaVH/tlcY+6Os3pHFg/1K1SpTa2bDyyhbNQdFYd3mPUc3DCnXdorSmnQguSGtekVtm3kygIRrZceqweOoU7ZMxoP2ruld77Jnfy3uM1ycK8u2SwaKW1pl3+QTh4iVMrReXrCdcesmg0OMX/66X5TLaaqdzMNx+vKiNhjTHw8GxoHE+4om426OfqGNhoRj9LMTw9bOsE/KIXELULNVX788JGjxU1cbVPRWJ0PBHHcX0vXpCc4BHYbHDfM94op1Rtnu4OUNgu0gPKaY6Swkb3oxSE+P4Xf8cRFaaHxa7uGn0eD81W7sykraef4RI2Kr0JqCCRzpzv3OGl7ar1iU8NQtGNenXo/FHIuq4D/r8cct4M8ttmXcpwZ1PMrbtFD3Je6tHrWvHckafu6CLQAOp4PgSLqSsakgMWMvU1Hcayd1qzqZxxbnhIWXdxx6wF+6guBp9e7yfShnhDwNkNOG/iUE4u8O0285FKvFtn5B5d/3rIFYbEyQZv7jgm6O+jzQ3if6lhSafoiy76d2YprK6+9pQqKE6mH9VCJNWQ8Eep5F32U9pstqhbU8sHBN5Q8s9NhaIDDYHV9Z+FOdV/812unJELxAGdh2eR8K3qFv6blPyQDfRiCQyshaClchBBoae5SVcZhqXE1REvTwqZ6Xe5TGOPBQ5jYl+N9+/s/xQT+KTJEv3uJchfNZYMgH9K6op52m0BghUuSquKb0VyfepNX7koIAkWF3zSO6i1fe/G+l5YQEEa2QxeaLe1DdC13g4URYI2gQIt4inaiYKjpLPEmhn3LIEPdYblCPfm0Qp/9Wy4s9Sa29swQB2u1v4lCt0rL0JL/V8QtaRPpdZJX59AbzqpWveRLt3F1SAMW5SA/83PyXbvxIqL+xyBFT5FV1aLratn7kRB9H0CNiZJ3jDvPHAv2y4Edy/dY1CbBFEudcmiYDEu9W2cckYAwXqpU3wJR6r9WLSC2CCpp0/BHMmd6J8G1U1tvjhuNyD/IexBv9BUlnkzSN7oSUNKMaUkTcArRmfogcVMQ9ln9UZnPB0EGYKbmOYDTTx+qH6wdCafpy7F16bdhgk/Ad4NvWZm8rBtOfFGeIHPwCUWGt95u8S2iNpULYMSL+8y6lvh7REhkqlboOzBKF6SDG8aHEJThMN1NDL3Kk37K2QHz637i8e4bxHpSOvRC+/VWFK3nCBpXXSfybJxTaqKGm5mp9wF32FtxWxBTaK/btG1tict2rFJ1dePDIstkCRcsK+SNDinTk0pO8Q3+ajY77LJE7wJuMpigh8ySZlpaMpCX/RpXExxVs91Fam9EwrnDP/rq8D9XJxNbL5WstCac26h5jpeXMm8yU1p5qTHi6PuCevS4wk/Y6vbPp0aPK+iB8ZUqzwV3RXzNWtgZ2xf2Jvo83jtaBdp7+wpX36POeqD3Izn7dcIX68DwZsppW3dXW68wTpSf0KDc0yjCYPzFhs7yHIGClp/D3cbDG+NSohc4Ne9hp8unFpp1cYKmPUJpMC1AOqWeZK2WWLoxwdBMr3w8hhWdJAErMNxmgyOwc2Vz6/TT7/pjgpe2MzFsOJOB4Plh416RShnXVkx74nYGtrw/IhX+J/wqMJ0x49rBVc7gUsNfHhHJeDvz8i/CxFdD9ifzM8lqu80lA+in3ADMvc58d0HXNfZzQ8kRIiwyEly0BnSILmPuhO+Frk9DjmnvfOlN6myeCpwwW1mWAUUt7H3+CLAFxp1wz3oFueSg8bh+HcxdPs8jLwUH/37HwOUGLSIxaE1BhohW/W1Qq0D4fWyGVCmI/F963WjkwwqIGlR/yPwn9JgNNgVIXiSF4YDa820VI2WzUme5f3P0zCE9RdkrpQqKfD8VTzAUfSM0vj1+37hSCfRGJwbAIvVFVxWaf4hrb2LkYEovmf1VI+201T8dwND5KpsU5eqvivzMxMJYqI5PlWXrhbo7TSV41Ri3sYjE4lvbKBWtDCn15LS9KbNb5tbHFjmQk8FH1wTq70jByj24p1i1iYP+inNm5lJfAU9tI00WzNrrr59TwEzhetBb5l1lgtGZ+wFhQ9+njgBKOAsPKFr3hRgyRmE1IBVuBT6x29Bzk0mjbLlx2ZJ+pfA4JnAWGVUe9+KVmKs5oRdSBKewFhuekFMaFCcRWmeEFgfHLz/9IciNsyqnhJPGgc3qfY3PVAPcEWszGrzrT+/YsMh/vVpbVHvldLK4KtGdB8uIKxb5dl8uMItLIdpaW1DoCcVmgM/HaRhZ5noZ0PkxvMMLlXbY1mYwvw0CgMxyTNni06nET4fk8HWvihHRarPe4fooYCXSEBSkLVCfh8khh3qEGECOBjlBSEmKmmu4EHfVI1FzMSKAb/Delf4GYTDZGcVtc9HA/XWUk0I08WWovQNoZj4dwA/cqI4Fu0JC57bMDFLhVBM7EPZbgfFwFjAQ6kVfNiBgrpSysExk8FTMS6AQ1EZ8H+Ov8BqpTJDX42TMS6EQePiEhVtaKHmsAyUigE0gLdXFNYOvckepDRgKd2LepR+YsgRm4oJ1Osz3UwYwEOrGfNTe/qexOpkug0ceMBDrB7og0MdU9jJp7bPR8mpFAWxD/Amlw3sHCWbKOkUBH2Jo9xnqda5rcUpalI/SxgDkjgVagflpReyThhV32NsHOVp3gI9AVGhM64iO4UXupPxLsbTlmJNAR1A5/HPcq8V0R/UITNgaa+7IDXUQuAi2Atm1IsLe+I0h8drhTETmcaWIi0B1UXyYoSn0JsjG3YM8xh1pf7xcXYSHQAkZWhwikvmaSOE2O/LKN7jIMBNrC4Nd8fDoG+KvevyIYPNh7sEDPw64LtIXhr80n6SUDmkm8qbLSMdVyhsdBgTbJG0VrDXHpaQyMAY4Cc6tcMX4YDIijYi3r4mHweo1eh6K7YChwbRUhalImcGTZJ8B6bZJhuBt+AhvLjJatGdhNi5PL63B/i2YGhvgalHjZXoCdQMsI0hc1gaKuKX2C3MduAuRBWBYCnSKY/Zaap2nb0q9GiMGznwcCjYsCneXikxUxM2hyRgyeuRAGuCfQWTTKaQiR9JgZ2AzHBDJAhNmnO7pp+ImGrftaYP51AcppgU6huxz5BBMwBx0IwRaAgmEhUFoFcZThtPhue8BTapy8HfHgEWM0jgus7YKzID3La3nZkImEzGTwmGttJWQOC8ztQmH6fbIIUZCIWK8JNl5SRgJdZ4tNgmeXocl66qu5OQl0HYnuhgp3T6HZaG9NRgKdZ4WfQrMdZgbGEvfa6JqRQOeZ6T06oEWZ4eBBj7SCkUDnGSuD5H62oxk84qTXcgsjga5h7CPH0AAyPEaCdAojRgLdZ6rnPQI5gHYZ1QSgak4C3UfstHTwTddeaI1ZhcoGGH6MBHKgVmZNnZT1qwm/vKPlJNBpkFmGp1HLjHd6PsBIIAsCgIYEA28wYSSQBWLW2ztCc8MCSApUnATyQORKb11k7cxox0kgFwIoIf+LiKy5sx3AkpFANoiZsjKAggZsbchIIB9CMJFZ01AoiDNOAvkgjsB+ap5mzsPqA8BhzkmgA9CXcVO2eQKnys85CeTFCLFL3L0nxhNma7iV7YMYCWSGEKhSlJLwGx12ISeB7Liyw52sn2fQUpWcfh7XvoyTQH6IEF281JbX0vDuqXqyQresTzgJdAkrJ6ot1F0xEsgTcaWxw245EnwEcsWw3M2wfp2PQL6Mlh0BuIPXXAQ6C5kjTAHm2AQTgcwR4ey3hHz+8ikbFgL5I0SQ90RI3R3FQSBvCMrdDLIv7gv0BiKY1Tsz+s1bgLHjukAXsWvTFk9XwdOM4wKdxLaNZyu53UNfcSHL06sCYS4L9AxQ5PiCfCXvsiq/ZlAb5axAh/G4/X+9XNfEZdc1cfx1dN6ndDl9J+exHh8KDPVHMgc8r2x6VLUb3n0Iuur/ewzgvpWtcp+jwdrntL8TfzqY++L01aTl0NRROLS0NEzKYRYjIXwhkPB8UDw4dVrOOE7qzKlyu9Swro+PQJu2Bkr4h6cO1CYTYFkd3rphsoOZ9RDVmbtycTJE5xIsmt6vb+NBPMdiZyy0wbCfezL6AorjgTwnZ0PAJnD4uONfwXOVjARasxi6SYbqHK4L4eB8gM5tW8wug277AJ3zt8YNJfS4ZYC+F8KebQmf1npyy85rexd8BdryZzuTx45kJqX93hkuAu1xDzgsfAd+N01peY8NZogll6FA29kVGSJprX/8AeA6RxdgItCeRfCjmaI8y7GyvzF60mu55RIsBFq0IwXb2vSu6G3pq7QUl24/FgJtWobItHV1BrJyYbKIe+Qn7r5Aq3aKy95OACTCH7e8QrV6mAoki4BRVh+h/avMGufatkO4LdDyo8Ruja2L2ePiC+ydWFvmWlIUXATSxzMm1koplcEtcVLL+gTl71ZS5hFhDVSQvjq/y0pAoB+K0JJ/UWRW6gO704tzyOb0BoAHnfcX1o1ihF76a0h0+VecQGIMBFq3sCHjmn41R+/w1Mj1GV8DleAF0pqBQAds3hGRIjeXGiCGOCCTWS16Hv4JWiA1JgIdeHFDQ4gdYIm+P7DzisQS4wVaRLqGiCQerMAzfdofff9QMMEL9ADakffpnpRcIQdkQE3uRYQI15Sk6FlIO0FWfviHMxcUTU91SfBHDX8MtCywmcctlrBz75ItjEOXFyZMkGnGJbZDzgUw3WGXzRItkBgDga5Z8MR51ezMq6BGq4tjrFuNAJ548XGoH6RfTbSs9US1E+VWBgLdtGhSSES+DGpaifWIF51S7ZQuLEi2KBovHl5yYx6eGm3mB+lJere5KNB1/urELlmhZcxIoOtIffm1C5WEHSeBrlPqq/+tra17bWkEI4HOc6ovJiQF7U6XjAQ6z1VlP9871nuNM04CnbfOfoQNhMJjRgLdp9KTkYFPYnScBLrPuLftvBbAfclJIAPbWA6ZQn0vd5wEcmAO3BcPIy/XADr504wEkuJMcaTd8p5jTgJZ2FLPoQhod973QBwacBLIw6SCxFqr1OhDXgIZvqRm1spwJSeBbOzz0FdVzG+gGjy1AsgYCeTDWEG2oDr9AFnNSSAjmx3oD0nfY7mHqAKeAjlEIZDtEvKd0w0rgayIEfnfzSwwaWXRK4j+KiOB1nHhLHV3gp6cJOrgMCeB7GyhMOJxs06YdwpBzUkgP0arHtVRm/N5qkmxROm0WO8VqpciTgI5WtKbFbrJrcJbzUkgU8t2yor1dcRJIFcLWyu9lHASyNgedH4gZ3OVk0DeNqem4iSQvZ11pNQBJ4H8LVySdVQvM04CPWEVDU3ISaA/LPlAa0r36eOAk0C/WFwbddKck0AfWXRLsW4RPfSLcjbmJNBnlua1vDS/rPOzsUcECgBWUDggZiIAANCAAJ0BKhgBGAE+bTCURqQjIiErcutYgA2Jam7uYVAOgEHD8Gv5tunPOXxnlN+gXh39YIMB/APwA/UbyAcQB/GPwA/TO06Mqn/GPwA9TX4xjGWW/a/sz7lSknRv7P+w/9a/cD5huE+d/uX9G/vP+Q/rv7m/HTtJ6M/Wr2AvDv1b/pf3f8yfd1/WP4p/FvgD/B/8n/qfz/+gD+LfzH/mf3T/O9gD+4+gD+sf6n9r/eM/0P6Ze4n+3f7/2AP63/yv/n7Y//Q9gb0AP5l/n//x7N//T/eP4Jv6r/zv3U/9XvY////re4B/7fUA/9nEhf4v8UvCj/Vfij7F+YP2J7G/t3/ReodJht19hPACwo/zvYV6t5gVoNqF5AHjV/wfAN+r/8j2APzT6rP+F4rP0P/i+wL+wX/99eT17/un///cu/YD//n9dJlzOwoL5OdpiDERpT76mdSKkhOC14whQI9UkGfRZs+kc0wAKAWWY59P3a6/82vwf3ZNY87XDRtnz81wI9UjixiGOQsQSDsE8zQyoTbzZqw5Nfwv5UcNeF9xPhkUk6Gy4EeqSDO8Wrn0Q12ml6vmVYKG872fRYNN8IWKlokV8zNG1kBBwN5nP3RuqdDzJyYnQqVjAXlRFcvgyrVvBtcrXwfRpwzntOL2kv6095m0Ed7iQjz0BFPiTU6dAwi77Wkk9YH+rkycAu6SDPri9ovgvwbCb2DRqriOah9pDrO/Nf/Yv2G+LzDgCfWJFyyI8Wn/18/O7MayqMf5BerDou97314atWSZgiHvQBdr/aln+d6dIDq1xxGmft1Ays26AiVdCkVRZNKyfygemOwyfTKhVM56kId/hz3e09Cf8eLyhd0rXnkX7xOSNdz9BdGiik5l0Bwici1WRZ23Kk79z2+z6jdeXa0QYQtFHWLWuKcSXJsOaJZ1OxyipMRHNFvQIulmS2O+J5Fk/hB5tLanR0pQcidgc7s/6yZeVaovG5jA/I0q0NPjK3gryUEAqZgrtP4bT/RzHbRNkZGosexwI/jBfU0rygDhro22r7gILcYd3+LBakViPonbt5zX/RbRr0CL/MtVOWgBUTDPNAsAz2VArnvrigevfYPe6SwPtDuzb5/Mpcum9C4kzu7j5T8/TXD4NDMt2sWmMhI2xVoli17kJDF0KznX383qLY7vkjDu/rCpAuTmlcIed9kpdlHU4Eic3WNaz5Bw/taXLwnvLNGOUPajdWYRwjEvdu5nNrWIDZ4zy193uVTEU/f5G99ADokCPUNG6qKJmOkjZZFZBM8/BS3nXpyZBxWruzSsgI9oDKujfdY+SPd1NMIPF+Zpd2/e16UkRyLQ2QlfFmbufvTHpeDTSw8gPczNA+Y/QYAn9yT6W5Lo/F1PtcKou4AA/vQ18cMPGDl1RISPJFmUjHQphJbnDp//6uOOnMeMglafOX/pJm7XDDWbZOvTx62Ds+a8Gi0THW8DIz7D3I2QlUk9atjWwYV69rDNyumkNDJCg+m95u3QbE9W4PrX8JoAnGUOhOzboP0KX7hLjRnLSg9TCNMpdhNW02Slj7qjmCQKaj4NjTqmo8XMI1dqspCaafEZkdWtT32r1FP/gqkYYJ9GiGOsDzMjhj/WSXZLjQm30qlgXdTIh2VyKId8qKA8keVQJ9LIlT98vu2wbTZuzrBaBIEXTBp6h+AyIkO5eoWBFh5IMMQ6+pnaSEW+I/NMFcznU0trHPIbsD+twiErRBD/FDeZZYJ5YC5aO4Jqr96wh/XVHdPEKA4QZZvDzEKXY0/Nzs/cW7L46KB+CzyUSTsBwPp4pQN2Pz/3dafOX4uJwJQG9iMBjibwSl8Msq+IGRNdeWqvgKUFyCoEobhQK4CeiEFfTNvbsvDPl+So7I6H0WexEpjkLzqJtbNfii5gDT/AbtzYmXRLArJsWPSQKclgitbdY8F5dFWjKIkURvdBQ+L5zq+eFHNe+1ncBe+QDVlXLY69ozlSeC5yyZIrOk8ZDokuJZ0+Vog8x8UZGwAJcIkRIVbeiSQoWDyz6gm0QLn/mhbk/bSRVlg6NuWSu7Gi/5kROfKs0+4N3Vo14PUPYamzL5C4wQHvHk9DH4qbHHNCtdOFmyKfJoV619jx9qfKL2wkLQXu9wXcc6WMJ6yPPdA/3eYFANfvhLSge8q5jFSfWa6SLx9UK9V0JjvB9AtOYaoAYHMAAIMBiBrT7ArTZykIgG7WhH8ipXpWQjqWaNMyOqjuEBFvhAFTFh+gccLTMrgY9/X42jECrw3nCPWiQoJJmxcH3W5IlTJ77TAxroZtLw0rGCZODoHEtDQkfuEWcR/XjquDc74QsZel0G+vzU/jz0JTSp+FOo/shqUiRfge1QKgq9TdIE5rK+XSnu6TfSzodptNeu2nVD5NDMCmZ71OHKOKVV4g0JJ/4hWXVeUZGND8SoPE1FBBEcsoRVE157RC/xAnMVv52LG5thEakv1OiY5ePNdwNUkR+9hDxLa3+WGBTaVUmBHr8rnHfixFLGoZz5xjWDyw+H3Bgjo8uefOiGhG0trhqaK/W9JPLVtRuPPD93jWkX0x9Y239HnUDExpW+B2pj19TcXNrl4yNKVzAvJjMEk676Os6gw0jBMUlj77McWlpa0zqUZSmfQLpBgAUJM6kc512EQAGxp3mCvi7GD4XgMah4CmER4jAS1V84JK6pc7rEwIE+kekx0q5U/kfeDIBKI9giQoPG1aXT9RvYnU3P77hZtJDwabzBwIsKmqhwNzFTwogs2qZCtle30wVQ2on99cRP7y4D2vTBChHWvh95oE9ifPQlJitUlZ2O6fJ8APJC0WqTPCGXeFpeAciCz1AGfs22gJK5W+I2lY0R1meILrmYdQnzTXFlyhPm3L6/KtkfJImWsbIzXoq6J+jz9CBu1v5OrwiHwWy1TF5Dc4gBN04N2xITafDx1X+cnXBEKwqXKos9NeOdgDxF+INoY/jiO/mcLzIJkuWw19Q7U7a1fngFWXXLfZCOAsWYMUdT3vGY/SDES5iJtOpk65V29QFxo5/SEm9UGZH9OGW9LxJvo2gtlA1iIq/oUpZmeVEzehmt0VPZFMgsGvVwEdugFuoZOzd6KuUNSICNxNIZRO1nLdNwk5Ga/2GM3CONS7Y5/ST782tcuEx7l4Ci4CBlJDK5QP3szauWapE/sgA1StKh6KVZ0zFVJNf/GxY8zDjMNhUb9zyKkvV2UbGFT0atAniAy6AN7Ni2bUXX6kt0z+OJ4TdVgCoBMQe7XaTfPdiWptvSOwUIUankyc1hP16Wz32ccaaloBtXiqfR5lYSpD9lMmEcAHOi8iRNqWIxPAgOC0LJ4yWEPseHZqK0bcFZDtpC1+C3ylaWedK/qMGCcSA03ZIE2PKgkwAxNLon5JAlz5JIFW2PTmST6KB/GdCh/l6+YOihwJNfAB1JX5+or+UNu0uBF5uh4KPkSLeotnYSRPeh9W6rDQOD4mwfpLXH3RTiw5f+5a1UKFsH/+18En4VxFdMNuIiz9+sD0jOLiaaM4YbbbIzLPvAk40F+iKLtQMqWUtjiYkD+sZ4PbxjFisY7IQWw40SNKM7SGv1Sq3ziOehXxlR7ZiEE830E/KvEyY/q7eVQEvjohh/5FEFIyXFv02p7/EbervpQFhruUXa/mboqczUhedVoJRd8Z5VaE2YUPcuMcnH+GlqFz/K/wtSrOnGGwzbFH5STVhAFZAX1IIZi2Nocrzy2jggI8QoHTiIG3J5KlJ0IgOg/jpMhycFSh8hc9zwncPVwaIo3BQAE9yBdoTKuL7rmAq8YTDHUhkblhJZlfF/I97JCa5dvu1oS1VOTqU7CswO27W5rdbdbsB4iOoU2Mksu8X2RrDORo68PWYGpaqiNDWYOdih1l+yX4g9Qe+1o5WRD15Wp7HBDJoaoeIoiS/lIS6PGRtznjjahGOo7sf3hMjVpkAatFBOvzGkKp2niSwnBgpuHdL1aVHQBvZrpAgjsF3FnMA7WqWaSzxtenqdxoZu3juV3UgPH/cez/bU+XpC0dwfzDTYTIJlGfQE0q5+DQqdFxroy8eu8suvTUei0RSfWHrYIBo0v6Gt2FXy1Ra/2rYE4+TP2XQU0ka14tv6M0pMuvy9J5xxK8UYA8ctblSDEBJQL93u3gaMuNzkddNWKp+T7kI8oDIyxaix94LwGDyQC98zfh17M2dmSY7/FeB49YMW99/uFxf5lTWm4Ec4q/Q3BHVqP05i9gycms4XAbJ9XftRwAAuUMzXU5mWt9SdqR3n+ZRQKUG+gUbF3veSAFRH7cLaC7EvBeNoihPiCQiyYF3BM9FYPxNthYYJcVYhDMxUuv3xhspHmOPHoCC9Zh6eVvBib1W+drCVn/7FGOUJCmZWGw4Kiw7eCp1wlCwK8w3YvjfsJENuw0Sxm6CnyAZ2g0lRJv3b4D9yJrvlDMX4Fu3Fvgv4GLZLyFqVENNqdC1yqd+UGOrxi+7qkWpTH/lcF/vsV+D2u4EmPCsQrSoRxypHf+k1xSgiTEPR/3VBNITf/3S2ZLG9zlBI6gwW18vhl0tftGKluhWrNCmfJEKbkCY8w3bgVenGXG7Ah5BOmr+j8wUDH3gfAa+CSlQpftK/ow6HNfYEvQNWAefe6T0jt04kqIqJP3MAhEFVUb2LJGB+br8uFX9jKhiOGSAQS2U6cR1pqXQWywMk17C2Al3iEh6rQ3ppUwr54N261ao6LEa0KJOvmv3JWoYF2vRzckOrNY+Ew8Z+JX7IUTxAmr05n13doU4olWIQTl7LMWdwTsHgsTD+oETXvuRqxqGgXtN6D0JdqYP+kqOEat/2MOuc9+F7XfYp+XhRBmS3NQHdPk7PQy6OOcHxI2BZvRggn60m5LFaBgLOnfKmzCwRHVpEKfWPz9AOEi+dfTZC8uYfdVQ6H+V+J2cIGSezZEXYdsweaHEaFlyTXhqiQ6lAo9aH1j3PNC9/+ZH7ABxhH90lf/PdeTSmOt3Cy0gdlSBVwA6cO+ng6GYWNJIEq1/Wpzfa5MLs9Oc/qKUK+3SSTq57YpbNxXDYmPeZCMHg/KO4jnJ51ykYEJFiXsaC9HNV8/RuaYporz79ijCfN/kN5Prj8wOBmHFubG1CZPdZjWaxHNprYGRc2R74CJCHHWbIdWqt5fT2r8uZ4g2DdLv4tfghVoo3ZmsQhRO2YGFEZNkJPi2JvJwNUjjjcBRV3ZrqNrUqyqz+BXhIx63AllN2P0Sal6SymOcrjGTSDKN38LSZrS6tJ12SglPQPJRCJXQZnrapQteVw5d6YaTIM/3IIvPA3jgAtSm4BsfG/1vSCyfWwGsdOhMRuIoK9Fo/X3raxC1fQKd5ndeVkaK2/YE58K//aUGWlnZVfa7u07++djAFiw50e+wmfKK1E88HX/75imYE3DJVcsRTKr+4QLjiC90Zgmx/S5RyRZcPtpLMEzPwqgOERNxKh+GnpSwd3b17s0wDZnABkvZ9OBmUoyADxTKrxwQsZNTpoqVCDyA4wijqAO8YAfMBqs72NLgNiHM1/svodAF1LsvJb7i9ikgD4OUMpqE40Zgoatbk3GsQPA7imsXgT9KvNhlIADnA5PJV/+xkP/8Vk5+dblwPSYwMl+EeHBJUo3E6NIDiE8LpuMe9XhfuhE6hAhhZFHXhQAMPZ4qqbB0wf/XsGj0qw/osn5MN+Ts0K2RdmPMkp6Rmy2ldolCBFphgqK5e4BMoe6Dj5b3pxQOKFLEkImVXfJekr+5fbtgue0wArWQCZYtiCeY9wtLJOvH8TycPcPiN2u7ZeUABoBl5IkYMAmO76OtGmDaxjsC9VoIwyw9XdYGpuyndEjsPMEfmO0nfMIgBuEzHy5T8LPSm/z//qncsPS0TcP3MWKbAT8ZmW24hfclDQjVbL4qolKPUi7zRV0XTPEzJ4mCc6QfPpKs/o8DgiTpBEgNCRIwttXTIOLqrY3JVQRp2w6vNSuePgYjSExmwsmIEEmJnUSeQGXN+eeV8RPA0voVVuYp4UzwHDvVmr0z+hxiF0BACsiENQdFZ99iROtVpC0pNeDKtV5M6L/L4+/JOTYfRmHJR4LilIGVrdeIyVQM6LvmsyuxtgYtZURjulfqZSlDMR+tH9crxqVe0W1sKVNVoKrHlLpOwqz5SqElwPbRl7fTQw+U6sTlpsAdoA0GTUuonHxv92YnRO7A1iUelEArMHPtw+xEgbYKRF5vWrRmtEOwGyPjfioDF2MD476M1u55CRrGSJcg3nw4UJKDF3v1kXU68G7NUdhJ7zWR35FcdJn39lI5Hd8HD1kZ4DJB6FJ607iWDyIaaNACfgiLMyrqB877I6gnhpYby9U0kAM8doOTYg6px1ODUaJXleu3I6Kiviz1G+Esqaseiws5Pq7TQWWkpSRohrfmpDp4jDH8uL15BlCExtz0b8nO3407T7EeUeZT9sLEsUxDhhTJt4rGy4fqR27lfunAIDDXSSE1QUm144nPl1f5SLg3rdCe7IFk8pDck4ZOyIPpl02FHt01RkzXcagJxJpFn7NgO+8NlHCI3YLVmQMcSQpMZJV0KaSSpDVbtj8bWei6/Xh6e1Fp74lrFF1ZlolLX+iCAFb+A2L2nTAfLMk+EwsyEYwTktfBQgaKTHOppSLRzSf54VKP67LdP7LsRLQWyF2ynBSMr323UCTpyhef2VUAwFrJrhdePZtSbsoUk3AgB6vWivBT5jvpHeOsry0/BTVHTighKUyECXt3Uafrdg2KiYQu/E71avC9KWqYtuH2URdS8N43fsvh1bQxN72yZVvnJe6k5yL5/VUR4B75crIkNpFKSt5vG6Su3oNufXC+M/dYIUE6rR7Ew1/GPsSZOFCV3vBOnwbLLnKzuWqav/MUJ/7OtunK24S1RZoa3qo4oYmtosjHViDzyiWEo4oUca4kNVVwKqZJCiSssT5LBGvlffPdmU63tSkJw6SN2le7YvcbRay4vCri+5+MoP3eYLwFRCiJwRtsRBATYtzBYL7q4HUNDwf0XIkiBEXB4vx8n5ngl4D/6W+EvH+V5633gFRAXwO0Q46ZCC06J0D0oAGRH/Ba24gNA7VghIbwez+0PEODjg3R0nceZrnp5cqIu47Mm+kS4OpMNHYVWqCqy0/OEuo0wM2YI7F02lzJbf/46khv6z75G0JUnfOpDYI5NY44jGeHz1lpwtNSV3xikug+GhomHSV85dfgdqfkChhe6Lg1dQrgKFq1ttO9OZ5m0nybYFJzxDxjNtcy2fRRQfj0Qh2Lsvt17DnYWnRHS6zgBjsSSXlwlbGSTvyQl15T+Og5++9ljaMyatqYBcRabdMrcbbdE5Yok46SYvFlOsOC12MyIocu8gZqf54ePZMYDbMSY/Tu25K9IHWUoG2e/keWLlnU0NhamBeGmLR1HF2TvgBOI8XTT2kfUpTFgayfG9bejQ43cxsYAtTLPfWNj3gWjEFGOyjgdVj9PV6I+0ziKmVzSebpWFSdf0Bd1hEwgefU/7tznyfoUDGZs7979QfcGHEjouBbueRqQUwahfXPi/Y35Lfq2smuGuWy9JezOn1H6sQ+dGEDkDdsYBaNK39xx6nPGcWOHxm++5qhCCs8mafpUonN8NFvpXA4pflBbTHzkw3UkoSm+SqmddDIDeU+prruvi8eX+ooUJj24aLv0wd0Wi0132XFo+lO1UYAwDW5s9w2bUCku0DS9Xt2KukSpYfn8dDPaYLJB3dYD108Z1oNrMu2PwHYg3TFgETkmYaPptwg0sH8qazzxrsw4d/H3kZ/Ck9I7dO/OzlsRHPk8B9Sr2ito4wp5Kh9lNHZaglKBoBr9CkTe3DGzjQ4/zlUg+3YohrDKKbkmQQye5vH+vv1Nex5k7Swa9o+IJn1aPRV/BXJqteSMaFeIZe6Uq/6dGY7OEXKxqkD0hIlYvsWg6WnWFZN/w0YoLxuU1CYZcpUm1Oo2h4ZcxTOB1ZU13xV0jCrqxatptnt4gX1PtcUZrJez6Sve42h2l1D1PGI8EpHmZtMO0yfI79MrRE82Wh0qxX+7dAB1xGkJ1KoWv1R24BNG/eFYS4QQrbkAVzY0ZsId4toxARWZz9sG2NKxVLPHkirVRgrr6pXvvpSGAhnOEta8kYgjH2zRFgM1pvPTdnnmvtPsbpLQhqi7F+xYpVjz2LP3XNSnFi+I3p+mh5ekFk74Z160jzR3ZvH0xdn18NPMnR6TOnfMlSso24p4+O4d+L15YCb3MgavWOyL+RwujW7QZmJ2lSem5jWb4uQRtNdS1Z4qIxDIhWa9gSrI5WFGMVJIuVBPQLrcQs+A1jeXAXE0MWZVUxMiRUvurN19E//FT/cQiEcGKm8teA2A1cy0RobNISPjVH/o7qz2X1CjG20awRmuWiZUAdDbpjm52mvbagUAg6JWYxgeGs8utaXe231mJ+hHLANqPFtnWVk5EFg0P8gx4U5Tdh7a9VJNpCG3PAjpHhlHw5O8yqg4isfKgnhoLe6o/S8BTejIHmQQaPDceVr/uSMLcGCYKlNadG43fyx/bVUQeDX85kb+jN2OGvBT1mXa7bVSnrBKQCvUMuloSUTm66B4F/To7vgMZXfCVnBvYNTgZjfsGCSqDw+utWrQOvK6exqLEMBWTyzQeBjkcZeGIADoK+KXtLsiQqtGJlLqO/4Lm6jufrXR2xVv8G70q/Ewd7BQbpvCDejibQ0nTNFNwujNtO7BbDRXsD0sfTZ4NpCQJKZWjHBUPrt+E624lt3Qe/fmrs8kzg8LR6AlR7sfGz45KDGsaoJaMkrcP/lIZGUwyo+Pa5CQWh0Ii/eQ1lNPbq43O1A0lTzTdouthpnONhR1Wwj9fJX+tBTSRka9N2T6GB9nIn+7f86LRTwq7cXkInDGqLndmQBK8vE3y8rLn+5gZpMBFXdbXbGDp55G5RYkEqkJzAFzo2DFpJgAucDTvmbGcGmhi2gUsxkTfkrCV2s84723KWZU8BPJ2RD/v2MfVdgXBPKroQP2RKaqpuYKi0tRVaktD48pi+qN9RfSDrHd1Z1VMmSHIauV7XPv+pZ37Lk3haA0b1M/+Dh7GIXGKCjrvpSEQGJfhXYIVzetP8yc3KPhI+L4WAtM42716TUh3kU2YoXav0F9h0rYlNpJVtNJQf/UAFshGZK+xj4047KtlEsE0PNU9BcKMJGKM5YgqobfHXsVIXA2NJHZWw8NVGjvQTbBNcozaYMEdsP2VtmO2a1ydxbCjM39uDuzC0bo6rzKadbjy4SjQ9ALmMqXz3TFyzG2+vcmafkPrOivYMlIeHEmzs5a2ManCSTsy4lQQQRBqNSsi3+n1humtK4h9CY1vgOgkkiCQelA6R9Bor1u/8SkPpVhIPZlttpgRAumc4cCrcqI1Kyle3BuMnDQ2ep+GeIUNinI5Kt/FtA+lOEB8CQuOZ2KKkgzFkDnqM6dqC6+PNidhYUsjKLuJXe0Pm+rGO0cVoiwIQ4tF9Ri6LyMaSbU2ZFqFSQ8ovoHISwRmfI2bXE5+v0z29uyyhHyZ1VHnlHA5ufogBdQ3B877Jx9Toub/RBCiTVdhNx/mGSXFl4VIVlf5bVveNucRk/1/knvbCRuRfQfdqIrZFfojce13j0JtIkDRVIlkB7NkFD/2pJPS5VrrkhLFxxxr2K6pBKOZTGpXmZSkQMY2Ze8ie9RBG5/8YWJ01z2qJE2diK8zrVBs5WdknBiUpHGYP7VwuP2IbjiLb/ptKwmjcMbYetn+gK/XxHPY/iFHiWy/tzBS79f2aJMPTtDVPygZzobgbCnsa9dOqbvKpMSAEtfYrDaNr4cprA8E2D1vCJGRVU6mmgl29Kp2s4DOOA0exow35M6KC9pEBQzSN52iESCAOaGXx59FHlxX8CbUNvhEA1dKlrxiI7LEyU7H2bIlgrO7sVvu7vxEkCf6nakAGAYmr07TZo4qwqt8mkLDiM+XdX21XV6bWa4DDMt5LZ9SxjkDob8b/4FMKj+aQpvHTEMalEHwI5ChTKFSqhycKpSKXTFCM19gPNhcyZst5uqEMRul6adKCCHj8ATSoNR6P/tyGnfbcWPNoWpD9MpziwxRBNmXX82fwz4xucSx3DZ6JkrFk5dTuq3PJ3b+T/e82e9HEHsNaUtc3GdjbzPAQ7AzckRoG4f7AhBghWJIp5mOFMWfxMDbGu8D2mdnPGXbcbVUOuOwnsbMsvsoImikaX1Av2JTqq70U8xLfPKY0X32LBIzQjSF/pz4agnAPCo3YaaDmPvGbkgs/dgCImnQH1AmX5t8cQ+jOj/NFPyQLwaM0Tv+jnmFHXhdTyuHOs6fawAEzIOZPzTG6XjvDO6nsLFlaEGQaBv/iew6PoHEbIPVSSl1z2QcuPqtR9mSPPuc45Qy5+jn+xT9ZWs/XcIUbVdzwPyHPPzI2aby/aft2RykOwInym3K+Tt7KBP0dpbkhc9r5XIk7Ux31bLLtVqDp8SrsWU56jEO66nizj5g15Rybs+NvtBjdab4KIF/QzmIVZ1Bj6Hdb31hQ4RgpUzusvT0wWVtr1GxNaaQqNiS+IwEJ1xMHDB0cWKfL4jmqeEB4WJ/qHztB+yIp/AqaD7QDy6MpZLNjgyAu8sNYs7rJ+Y4mMlnY/gN/YPjxMudpqUwcXWBpF0KqRaA8VWg5z6VTCcMr44q3Kq9ivWQjgzAjt0tk/uhEcDhkYHh5pCfEY72D7SItPXXdwovTjTcOJN/FisYWvR+oJ2ERNI0asdQAACWnEJS4/0AkG09aGhFBvkNGbmpj8Y+xr3GMnayM97vhsxskJjoArAmjYTxQfwuDN3VQj0FLvwptDNpMcL6AdJqQ2vyBy/SAIOecjllQGtIr1f5Dw/kSR/vcAcbZkpv5ZpSVPvZHOC6Y/kJoGbrE9c4nv0qnXYf57RVi+TDAitAPtzBPjOACsugeHBMW4SfKmg2I2XMonT5WoBk1LJ3UfNBNtcG8tBOVELyUZOFjiMMiVhxzQSQ7dlW1IxBN/59eHcyb7G9rOPG7crAL6EH2dp21jLDTGXSFMfrQiLE8a2w319VbDuX97314Xen3fCL9MJSNFLHcWsCsM0IwSP0vPUuwDNpUHv+9zbaTljO9P/mAD1cLTNiAC2zEVFtl/UYMvh9L4m1iYj5KskD3pxLozq6PtkRnEVHuNAlFQ8TdALjZj9FpgRIg+c97enl9mpuAtJufUi1ZHBVTBKQtT6lVM3ecCvBk7Jmn0IMi52o2hRwABDq6dO0qpPQbqZ9Gu1BqdIH22SIzMxg2d1RtD2/aqm8oJGX3LptLJsuvNAH8HtzMfBbYCObC+tHLaGbjlnD3KEmEQ2fiAxnhCiBcrnp6ODGrjZ8oTlmhtZ8s8V9Atd1tm+qyuZGemQvV/qVx9yTI5TTCr/Ku2wOuhqZ1XrnYSuPgS39LuX9RiFrA2zThP4o0nRJgFTtlPQoeSWzo+EGnbnWllU5IKcCa3jHZselBhZc9R6VflVMn1ClYycogRvlAVdyJPHu6ktCMyIuRATjb+9jGOpH+u8avOXOoWOY/iGjehlD1P8LaAjrPCT4siWAS6fxiqriF0hDig1Y7gryYzOaiCYRRGkccn1ygwcz1l/dQK9kccC0phnWgCalgCKBqJUp1yv4PKqcrgFwGF3S2gYb4jqYE3D3iUjG8okyEdhrKtx2ojHNu/rgzGeTM+3AFxuMz4H3e/o85faor2XboMfLOVIgox1QWsbbV0JYlfp46WplqfTHbsUiFpmWdajV2GAiswDev99pTGxVwlpyi48e+TLoUwl5xeM35b9jsTCAUByeAAABFWElGugAAAEV4aWYAAElJKgAIAAAABgASAQMAAQAAAAEAAAAaAQUAAQAAAFYAAAAbAQUAAQAAAF4AAAAoAQMAAQAAAAIAAAATAgMAAQAAAAEAAABphwQAAQAAAGYAAAAAAAAASAAAAAEAAABIAAAAAQAAAAYAAJAHAAQAAAAwMjEwAZEHAAQAAAABAgMAAKAHAAQAAAAwMTAwAaADAAEAAAD//wAAAqAEAAEAAAAYAQAAA6AEAAEAAAAYAQAAAAAAAA==;" vertex="1" parent="jFjf1O8naEyMeC0edOcx-27">
          <mxGeometry x="612.3399999999999" y="55" width="70" height="70" as="geometry" />
        </mxCell>
        <mxCell id="jFjf1O8naEyMeC0edOcx-10" style="edgeStyle=orthogonalEdgeStyle;rounded=0;orthogonalLoop=1;jettySize=auto;html=1;" edge="1" parent="jFjf1O8naEyMeC0edOcx-27" source="jFjf1O8naEyMeC0edOcx-12" target="jFjf1O8naEyMeC0edOcx-9">
          <mxGeometry relative="1" as="geometry" />
        </mxCell>
        <mxCell id="jFjf1O8naEyMeC0edOcx-11" value="Run" style="edgeLabel;html=1;align=center;verticalAlign=middle;resizable=0;points=[];" connectable="0" vertex="1" parent="jFjf1O8naEyMeC0edOcx-10">
          <mxGeometry x="-0.0929" y="-1" relative="1" as="geometry">
            <mxPoint x="1" y="1" as="offset" />
          </mxGeometry>
        </mxCell>
        <mxCell id="jFjf1O8naEyMeC0edOcx-12" value="Github&lt;div&gt;master&lt;/div&gt;" style="dashed=0;outlineConnect=0;html=1;align=center;labelPosition=center;verticalLabelPosition=bottom;verticalAlign=top;shape=mxgraph.weblogos.github" vertex="1" parent="jFjf1O8naEyMeC0edOcx-27">
          <mxGeometry x="464.34000000000003" y="52.5" width="75" height="75" as="geometry" />
        </mxCell>
        <mxCell id="jFjf1O8naEyMeC0edOcx-13" value="Code" style="sketch=0;outlineConnect=0;fontColor=#232F3E;gradientColor=none;fillColor=#232F3D;strokeColor=none;dashed=0;verticalLabelPosition=bottom;verticalAlign=top;align=center;html=1;fontSize=12;fontStyle=0;aspect=fixed;pointerEvents=1;shape=mxgraph.aws4.source_code;" vertex="1" parent="jFjf1O8naEyMeC0edOcx-27">
          <mxGeometry x="183.33999999999997" y="51" width="57" height="78" as="geometry" />
        </mxCell>
        <mxCell id="jFjf1O8naEyMeC0edOcx-156" value="" style="edgeStyle=orthogonalEdgeStyle;rounded=0;orthogonalLoop=1;jettySize=auto;html=1;" edge="1" parent="jFjf1O8naEyMeC0edOcx-27" source="jFjf1O8naEyMeC0edOcx-17" target="jFjf1O8naEyMeC0edOcx-155">
          <mxGeometry relative="1" as="geometry" />
        </mxCell>
        <mxCell id="jFjf1O8naEyMeC0edOcx-17" value="Terraform" style="shape=image;verticalLabelPosition=bottom;labelBackgroundColor=default;verticalAlign=top;aspect=fixed;imageAspect=0;image=data:image/webp,UklGRgobAABXRUJQVlA4TP4aAAAvH8OVEFWL4rZtnGj/sdOv3y8iJkA+Lf0phowxbICRDZqlElcunvYcIyYYNMLADmMrhpevyAQ3jFfa//WWpezrmXTwlvr/v5/vXj0by/b9zL1b/1fvvddaxRdYnzoREjmsDOvwRBt3h111Upx1arxzfAW4u0OnQ43h7pC5u2UjGW6foKf6nAgbuwAcurqp2mGfrEPcydxJO8Tdx3JcOsQdOhyciHIy7Qj3JnJYWD6CuxOdqvG5AiByyUc7w0cvoIt0fGK8N3oH7u7SFzAeDrlbV238BsZxl8hdu2pV4eyp6upoV1eN5LhEE+PukXY1oTWNO6F7Z50R6dklubZtt21+BQ60IQDvnPv+h+TsYR66NHRuyrFty24bJsl4wBjklpIgGO+fs/fFU99OOfNIOUECBAAE1Nw7W59t27Zt27YxM9u2bdtctm23CaBa/f9zSdl6xpLhzvv7/t47ZOztZ3snzbz3ffec+1U/chU4DnYlOet1hCKSXsk5P0uQsYzbC5TBQW0BlJBzzjm4sRvUqHGzkrPqKkIRyFdCD1MA2W0j+NTBKlIXOWr0SqIdj8JOEagtgJw0BVBFUjSQQwObg6aGDHaqoAU271aA5FAG2wbhNkDOqYcNBWDxOSDXti1FMTSTYFals97/eefcB/ZCGmYrgQEAgm2SYrZt27Zt27Zt27bN25ht2zbLCWDZ/2X/l/1f9n/Z/2X/l/1f9n/Z/2X/5zP5tlEAxm74k3VBiA1DPmxckzrIBMBz2Ku3WLEhjW2QD8g97KJXDA/Vjdg07oDIAPkvQV4cMlMRA1fsNY4TMDRI0D2LfwACq//xGxIbBHmEDLkNTxum2CBBHqCdflYz2f5EiQ2CvANOvWjwinTLh1ew0CDJ4QI0OmXTJdtGiQ0SZBs00DuUyb8XcGwQ5MZpDcDOro9kTfcTMDRIXwEpnxccBH2BbIJmNFP22CBB3yDLCI5ei7R1nKChQZLDlIl1bl94wUGQK5PU5kJ1VGxQbxUYnTJsfaFBgt5CZr34am6i2CDdCGAw9aZ4mPUaqTs0SLDPgA5Q5ZZH0BqhQYKsQ767iq/+x3ek2CBB5r3qk9sXRXAQ5By0zSsuo2KDnL6fo9NCAGsjNKwpJCdZmz1ZLwjBAfIGmDZwHzc+NEg3AhjwiuWc2CBB9rwoNbfGgtggh3fIBuSXP4UyNkg99wX4kfCRuHU8gkKDJHO6TTW8NmlfbNCBvVIKRnnfsUE9FpYACTiR6Q4NktNn01WzfoO7mLFBgtxBplwsh/kWqxEapJrFGgSZxbFBOkdgWvNx5W758AsWG9QLGbEQlF7D9h2hQYLc3qYT27XFBlVgz73oTkup2CBp1+bEumFZWyM0SDuFhI5ruu/A2KAabJefsdlYbJDG/L2ncnNjg3pAty4w7c3VOjYoNEjQ151aCF60uu8bGhqkOuz8jGFb4McdGiQnF5A8p1qjYoME2EVITpUvOAj2CToF+rmZ0sQG1bf/w+kczQWNyLCm0D5E+WR9xggOgu4Dfnsh7G+f0WODpkAXTcOWdIcG6RwhvU48BvcPzNggQS4BZTgPkeCg+q4tlFxLZ2iQBFmx6J32B6bxsUGC9sBaXVhwcHh3evCCFgz2HRqkCuDAq6nJkjw2SD2QYzgRH7r6H8+Q0CCNhY4a2MyuhgbpwIBGUL2njQ0S5GDLIBIDsUE9BwdEJuszeWwQ4KN2JCYunU3jARAZ1hTa5Y3wnO7YoDFOk8BI5PaFHBsEeTKdc4hKAndskG7Eq8O3OujzF9TYoDrkDNLoqDQ3NEh1yKlpwbinDQ2SLtur4cn6QN8fG7R1k+4ZFqmqoUH6K2g5HKP+2KAeyD4gzyxvbJCmQLb//cH6Q4MkyIK19gPBQZDrHBeS6CC7Qlb23+E7BBnPtJUaKHHkFmDVO24Y66AMCnvQOqfHgBAvOCaUMIZmXwmltUErfBADCnyqwC6c6caOu1Qx2T9YWhzJU84h0gt+0iOZNECdwGfs0gRkA3FwAkKcAqRHguTfSQli5oEDLJEf8NFnTwHqWR6antsXczJO4JJC79yCoiWp/L1EhDsRSHotiw5LvqN0gANLpyDM3MrnnAYkaB8y+qNKBJM9gINih6FwU4E7I9R/5RR3k6wLRingMa0A+A3e+VwmAmnKizv9ubmib0dVEWmFtz43qUA68E7PdJgbq7jTYpWuBocQ6tQgAV4vGUEdT+C3jg0q1kphMyoRcM+rkQ6kA0Nr/azcsqLsgBBK0RgseLUSguSwZPL1vAaKr8wHvmzGsBG5cJrQlMuZ3vzuTFhsSYSVAmRPAnei0MV9A6QPHHYDxdQ+IBFsghevdlKQ6l1eLXDDsram+wlYHB1Q+UmMNoOj8M1rkBYkQa4d4poPuDuLoX00qsgX5d1rlBmE8AQZvKBjbhQ7uEdTZJUccOA1TA3S9p32u6M56PMX1KImtwCDjfl5OAdhTh0S7Da0bNWB4mWyAwPxkh6GNxDh7KEKZBs0enZfUdJ7x3CIwL6tUo8gP0h6JLPhyYePxMl4ARcdvWcIZhB+pUZ59mhShGbegqvh7NaxQcXF0LAEFkbmEKgTifQNbgu8otZZTGQnKbCCQwDikWUJjTVdhU3HEZ6iAQeaoA96JMceYZqQtn75Th0mFAVDw8F4ODwoO6VI85/gBYbMA76vQq/iRMELGZIIH1KPNlVIiFcmpQaSiwu6ZcPQCvbgV9mjThbShj/wRaYVbj0UXaVduffo04W273Z4j+m16ZruO7BAwy4Ga68vO8FIu36ZNBoWZJVFDiPhUtHzkjF0XTVAm0XZgUZh1eoEPLYJXJG8IwinGUmQo1M1yzvo8xm1kIJEorLa7/nLGtJmrgZcaQumGS6YJw2RXDvhCHD7NDMSQlwQNZ2tlQJmW5xyNB/0dLQXwv2FzzSgQzs4hTx5fjOH1GPxBJg99Lk01YKmdylsBfijo+c7d0iCrE9fwyF5Z+FyHxSDlYt5/tOHxv7wXyZrEzQKk1JWFjH6aY9D/pA2AckDak8oRDI7jeIBP3k8Moi003tLGbaC43Np7U3hVUpEOvATwEQM2wIvLMJXWtgBT4oelyQi9TqMv9HdVQuF3IISNL10cMfU45NGJHm1InXkPqAgaH0DqJo00AnOlD1OmQT65tXVe1vhaTu+4xUL0LmYxyuTSGOdziETggv8Dq5RIiwpBicet1wi/f5HOFhsrSPDTqWmwMVmJyfVx0DKz+tpGx1TUw9ge2ezxzCdSHK4RpHzIq1jQzugoTNCgFJSfno8M4p0JNa4uGGZ1NHM9oBxHciDZ05UuhFI618u7lgysjx5QtmpSpUNOKl5mPvrOKYaOMBLHF7b45tVpMo3HMP61jhOwI5h5oEqSMMPH6VOWJI2Yd7CkvWB/jvav8+DD/6dx3u8U4tAH6B9Xlj605mynTszO3nEYMm+xz23SHuGVL7u6n98R2rHhoZQQlf4v8XJSw7vkLUbTnuEJrVXB0jM4YDk3BOQXqQuyIxp+Nbap/ZHbdDTKUz1itMNSy2Ouru9ObOtkiyed/dkZBhJN3KzG83tC+/+2pW20BGOeWKSjATZ/2SvSHe3H5kP/L6wd7zTmWAfTee8GoYjjO1Ew1mScrCbQiShSTWL/eBm/IrtATYyJBZuNHuiMo2ua7MTN5rbF3IbOwAvWOPgDnz1hKUaSd8AzLi5lscrtDY0tBfUgr+Knrhso7rDCopQPxfD5LaCe7TrxHJ45QlMN1IN0rZiwkfitoHmevIDT2TCkR4JUpX2VmoDjz0Dh+CLF6ySExwLLfUSgyCvG/Ai47waI1ajKL/+YqkXrnhFkIiFPaUFSfs2xy9xU08acd75U2nxBC+N8RWb65Aym2ths9QgnSXQzI6QjSD1lc0z+OmLC17koM9nVGdpTTxwqUHvgFjsVnP0iIBBJfEHQ82e6CUzducKenOcEQZgn0sMqiyFpv1gd77qoR740tETvnRGPld6DRvIj12XGKS/NV0Ffk4+fcPJj8qr1nf1xC+lsfEdFqkgOZDr3tKCtHXoqGUsFk3OqnSlJBledPeCGsnDrNdI1pqMXOXiSgvSjQCazWgk6zNGJrkFWDVpxp3mbYSlNtK8EkFdL7m3xCBBDyzzF1HkFYfvBtmM/2rxwhwHbN44AZGwi6UGCTLp4n8Xw3HApC27DvBCHbk29xB3KYXclxrqF4qgPhxL6xoDId7GWJJjd8sjaMghP/KrSwsy3U169IYDL1ggywt7JOd4xeXydx0b2FgC+2XhlNBA7tscBYuJltmNDeTidI4maGdwYF8OSXZw+7GB5INdyplCnmMD+T+muUuDAxcj1X8A2LPYwOpbzfic3tBAdoKh/XfT09hAto4TNFnhh8mZWgkN5NwtIVRDL2MD+WDT/8jkITaQNsP58U6WgkNjnjfCIAlTQwPZdD8BF1yM9Ux/fj0ykLz8GZez2djA1f94hrgXFqSfP6cnNJBz0x4hJ3HQ69hAzkn7pvvCtdjA6mwkjgtjA9kY7XX4OOxUQgNJN/wmpTudEBu478eBlCFcxQZ+xy3vYCuxgfwOcKX9+FVjA9kyXsEArKcIe3xxoYEc9PkLajNLEaH5kWIDOc+s83q7YgP7lgNEWpibEhrICSf2tVuPDew+7Pdn1LSVstA+MzSQfNHfPr5d10MDeReWifqc4MBk+xNl/8/24rGBBJ+xbwTS1BUb2NccCH/V4lxsIJv+3wEn5zYcctAVGsiqVThhUyB7vaGBnHe6V2vhIjaQOS4k+wIdCA4c2Nm/w27GBjbeJuVgu9oxvZFhTdM+pEY+UnBoGg8Ar0XqhbP1dO86NJD9O7MQdKbQj9BALnBv/G6TLF7GBnLRG8F2VnYVGsgnOV3YIchjbCDXcFzI7/C69xobWH1wSArsTmzgca/vrUGLtx8ayOoVgcN4tdhAdrcc73ARQhaODQ3kzy53NGdaDw1kbl/IzqF04QeODeRK2zr+G4kNbB0bit6MsAH7jg1sPFeyoHeOJNi7+ZGBZNN9BxpL8jYtnvSGBjK3Lzxr7RFabyQ28Gc/BjHQZC42kJ1WhyAkfrOxgQ1/3ug/b7HlRkIDybnOoQuZ33NsIE/G6wi/+J7YwEmWiFpM+r7HCA3k3b3PsuDAbkaH4S/773DBu8MzLH2AE8SosLdkOuhiiUO5v03LASteYY+H+vd/xOaK0O2BbpQwBijzovvKFSeKFfobybZRtnSbWy9VSJ6VghMvMQ4EkbDYWytBlOGVpP3soUaDbwUSeTl7LjV0hIPfZj7wjQn7x4H8Xjq/lAAhcEoNyEwaY8PFl/1l0MvSQQclYbMGI8TcvvCsaw6YLhE8LLaPnG7H7m2UWF383yZzWy/60rH/yyqOA63JeNHrynGUFlc/v7jbSjKuFVI5iI0cN2qx0OlJEVeGq9Lpwc6+rLFj92d8s2nFZos1yT3Iu67OGLLPa5FCfCH7RVkL/PPt+caSc3P7ojhVyNHFFVtFsBbEARtZyYjybbyu0rBVy/cWU0XJNkwLB6Ox5dreGrTD4kPR1BMe7fyHseLaurMjkwxz2gZs/EaKI/gAOr79ZSgtvFCam2U+OGnLoNEWToqhOyXeYWhbHwDjxZVhz6BFOMKTBzbdd+C8ZA2/2UzIR7HTURLfvtaYcWXVa5CUnc3NjOSDpVNL6BjCVW/xMgCcSJp1FW00blxZkp7Arc+SydmRo61xv5yuYqUj+I6plVtQjB3XjAStt9Zk2BZ4HtjptYRPddWiZLz4FwS2NX5cC/M34JXSdN4UO7Mj97QC0urNFh0D4M52QfgbjSekylJozNC5KfLA+zsZZ2lBWruKiwGgtFKRuqFGFVLPeZjjsr6fzYxsHY+g5kBo4o+w1VU0pPAJDKGMansbR84laeuAPkOTB7u/zEhe0b9BdyCvxcHDcBK49TCanBsS5P7YtrEsD3zam3j8I+gtAiTzMGlSyWhDclhFGn0n/dmRi9OpIWxtb6GnnCs1d032DzamrAZ9PnT0Fl8lD5x2y9baAyYLuvGv7DHfUCMP1WtO58xoPFcjM3IaOowIyX/VW6iVJdsoz+wr4bJGltWypjf7d7MamZEcl2ayIYcFmeRdsq+VMt2ObXxZbVrlVAECA3lgsi4YRkxGnkfB1fMYWBWuMhUnihGJ9vovgMiN5YENr0Xqxh1xoqewgi8rKYZ1Rpk1IEEeTTpO95A/BC078jDrNRISnj2eaSH1P3S60kizRlRfDU4V2AJ92ZHJtlGS3sKgdQWTcr5ddnA0GKNI9b96VTcs07JjozNtpc6pVi98BsBLWBdM5gOMN2tKEuQs7dpapPqOzEiamwgasN4DFzrHv4eYGnVGQLBPT+OF5ck13U/A7MjjsvhrYUFzHhxSfH7pzS7SJpwWWqPSlwde+Y/1wx4WLj8837feyDMa6gFsQfJOJw+8v+QTOK8PO3pWhQl8hV2vdjP6jIhUga581kqTMyMnb80yFgvHFhzpefCHTsWXjUAjI+l2AMankx3ZOK4tL/zbwuK8m3T1yHzgG4VGSU6vYYuOYkF25Ph3RMxYrYAowrVFjzYSjZTksHOqzzQpO3J9aTS0WAO4LRQkx29K1BuMcuT0/hpedqU8kM28o4F4wS4UBAACP30FiYYa6Ug1J+M4UU/GC7iRXWMgJXRH9YP1jm4AcoQy3aRkRBo9qeK0/VNmNf2/A7Ja07Q318qbqHRk49+FmTcYl+aDBN1F+J32CM3NA1vHCYquHrRxasfVAZaFiJSMgCTopIt/8/aOJg/sOxcnHmfw+R3TQn9tMcMF0+g0X7TrkTNaHkHLjpy0M8TPlrnogIpg7OPMTmOEmjeaf9kXDhCYnB25b5sKmuZavOlo+oOorCw7GhNJF/fmpqnpNWyd2bGxb2dpXTL0qgPpDq+U5kDqZY1T80nShVrq7ecwtIxXsMxIzvKK5Q29eQeRHr95oEbJWDXPNPaSL6c5Z8JGduTHWfh7JJ/fETTDH3dUfpMbr+ab5HBwvqk3xX3ngbl9IW8UafI3tH8dFlE4cQsyYpLuEhqPI4x54OTcvvDSiaLZhnZuq9W0JHGPZtQaB/r89zYbfnLVzMjuRWadTbfevN5ubfXI7TNcMIcaPUm6x5Na3+p/PEMyI5njQmLh0ylAXtunh2+VWNcavcaFJkBz3voD8sBl+7eQubQdgpB2MA0rnRFsbKjyIBYTLSM6LTvy80D1/mv77UwKTkBREJlaYypp66cAJiQ5wckDq5uz6HA7M9uVlTSqvYxj40Ta7PFZj06yPmNkR47fmXuEQ57q7UUKN1WbGULS6gQYYUmQR9j6jV55IzOSBwDNOI/e9qBFev33XsazcSPt2jQRufF05oFrO13rabB4Um9zkn2tComwMW38SMAx6/Hf2fjsyBwXkrR1/c421vH9Dy8x8lJt5IzDeF3MPHAAwHq8gOU2VIQj0LFq0jQZfemszuM7QSTyQK7tDU1Kb6StdJQOD5o+t6AY28aTVIe9t9z+7HWgkRkbb2MTScu0bLYNlOHNm5liKBnfxpUki5vAQDcs/ZmRHO3G5fgg1yNYuoHYL6W+ozFujGn777vFIfMTPA+s+rkYjhfwrzIidZH8FOxvMM6NM6m2Ds9N7mmzIwd9PqN6RdpC3CojzsmHBnIb68abKmfqmHQn07Ij7y5tdJ20jCDgDpSu3s04Tfr8u7yaOdXs+LNXZKnFwWfm7eLxko9Q6p2hRmuSIJuo0b+iamYkn2efF2rxJT+LgcmPjXuTQD8NyU9b1VFN9x2YHTnFYt7SPHRp9+g6TfwmQTZ+aP/5aKwPqf7fO1xkBQ7Xeqre2Dch1HUk0C9DXz6TZEdO/owdnHQmyBsc1FW1zvg3KSTQh2tNHc3V//iOlB05/jM+3nR6+E5WLKZ/o2gyopM0MY1qs7Ij72/Ih1+4o4ajPts8VQ+4xsGJIqfnFzJlWXaHczlZdHGbMcf/Mn42NEjnuBVD+5OKDdJXeKUh7REKDuqFXjqUNB9wP1fTeABEBknQ5YO5m2V8bJDu0bxZm5soOAhyfOHNhcFRxwadFXTPMfEGfiU0SF2ruYYPfZGkdTyCQoN0Vk7GnZo+T19okGAfH/aNkvUZIzZIZ/pDzQdiy2KD5jtM7XF2bFB91xcEcFxbaJA0f6IXwvOOOzRItbNLCV1w0KOcZtl/Zf+V/Vf2X9l/Zf+V/Vf2X9l/Zf+V/Vf2X9l/Zf+V/RdDEKPH1IMDrasD7ZsaHDh77T/cFRvYfycWf55fPTSQh9HFTNbwOymx+BgbyNGnCTsyMzaQy6zH5Uggj7GBTDnY9ul0tRIbmIwT+J8gOZuIDew2r0TpHM2RWw8NZNXcREjdVosN5P2NOr4/7wkN5PgVDgQ5qIcGcpm1Jk5barGB9HMxgLpBJmfGBnb+j9mfkNPYwEYnuNK+X83hPTKQrFrH5DbH1EMDeTpPDRmEfY4NfK5nuhqLh7GB7PRU7sL3HBt4f4veyNrhzw8NJOeh4mRxbvuxgTwZ2JiFPbGBa0sniqf43r2hgRy2PcPTHq1bCA7sO5l0agm7HhvIbst/VBb+HsGbhwaS3kvYQtppBQduzai5hRrIZWzgg9kVsumIEz2hgXxa9Gb8+D+PDeRA2psLtLrWGxrIacghP3FqPTSQs6eDDkDuYwOZdrk+/i6DA+et8GVTYwMfLFkXjBP+F+hbaFhTWFcL418dHLqTDLPTn08wNjSQ491DHGmGxZPYYBw2A39rhNZLiQ1sWKQ6UZPV2EBOviJIxJ9XQgPJtCNksQyy3xMbuOyLzvccYwP7wJX2iD+iNzSQq//xG3IZML8g57GBfNrlYItMTq8rNJBPm1pNhGaTi9hAtjyCdqI3dCOxgb8y5eMhC58fGsh920TyFDcbG9g6HkHD3FivdUOxgWRuX8gfBZmp1UMDmV6he7cj6Y0NfFqvSFtM3ERsIGe5MZx4DrGB/W+F4Pig0NfQQCbjBey1SM18faSZoYHknq0tgBxUYgNfdOMWalaphwZyc2lrCzoWHDj+2/4dshcbyLmv9fc/fXGhgeS1QevOMTjwimB8LfbXYgOre77fhWcVGsjBXcx3dJP6DbGBXJRaTdCR4MBGbl/IT3l82w8NJI/Ler59IuxTbCA9lTNNXT44NIbMA/4wL1cLDWT1dFa0uBYbyP5FlkR938zQQPa/4YF2WgkN5Cte21kCbmMDub0VrSn4rdjAvqFzU4wODmX/l/1f9n/Z/2X/l/1f9n/Z/2X/H17V;" vertex="1" parent="jFjf1O8naEyMeC0edOcx-27">
          <mxGeometry x="768.3399999999999" y="55" width="93.33" height="70" as="geometry" />
        </mxCell>
        <mxCell id="jFjf1O8naEyMeC0edOcx-18" value="" style="edgeStyle=orthogonalEdgeStyle;rounded=0;orthogonalLoop=1;jettySize=auto;html=1;exitX=1;exitY=0.5;exitDx=0;exitDy=0;" edge="1" parent="jFjf1O8naEyMeC0edOcx-27" source="jFjf1O8naEyMeC0edOcx-9" target="jFjf1O8naEyMeC0edOcx-17">
          <mxGeometry relative="1" as="geometry">
            <mxPoint x="941.3399999999999" y="90" as="sourcePoint" />
          </mxGeometry>
        </mxCell>
        <mxCell id="jFjf1O8naEyMeC0edOcx-19" value="Plan/Apply" style="edgeLabel;html=1;align=center;verticalAlign=middle;resizable=0;points=[];" connectable="0" vertex="1" parent="jFjf1O8naEyMeC0edOcx-18">
          <mxGeometry x="-0.4231" y="-2" relative="1" as="geometry">
            <mxPoint x="15" y="-2" as="offset" />
          </mxGeometry>
        </mxCell>
        <mxCell id="jFjf1O8naEyMeC0edOcx-154" value="" style="edgeStyle=orthogonalEdgeStyle;rounded=0;orthogonalLoop=1;jettySize=auto;html=1;" edge="1" parent="jFjf1O8naEyMeC0edOcx-27" source="jFjf1O8naEyMeC0edOcx-153" target="jFjf1O8naEyMeC0edOcx-13">
          <mxGeometry relative="1" as="geometry" />
        </mxCell>
        <mxCell id="jFjf1O8naEyMeC0edOcx-153" value="" style="ellipse;whiteSpace=wrap;html=1;aspect=fixed;fillColor=#d5e8d4;strokeColor=#82b366;strokeWidth=3;" vertex="1" parent="jFjf1O8naEyMeC0edOcx-27">
          <mxGeometry x="108.34" y="72.5" width="35" height="35" as="geometry" />
        </mxCell>
        <mxCell id="jFjf1O8naEyMeC0edOcx-155" value="" style="ellipse;whiteSpace=wrap;html=1;aspect=fixed;fillColor=#f8cecc;strokeColor=#b85450;strokeWidth=3;" vertex="1" parent="jFjf1O8naEyMeC0edOcx-27">
          <mxGeometry x="888.3399999999999" y="70" width="40" height="40" as="geometry" />
        </mxCell>
        <mxCell id="jFjf1O8naEyMeC0edOcx-139" value="Deploy Database Postgres" style="swimlane;" vertex="1" parent="1">
          <mxGeometry x="13.33" y="640" width="1036.67" height="180" as="geometry" />
        </mxCell>
        <mxCell id="jFjf1O8naEyMeC0edOcx-157" value="" style="edgeStyle=orthogonalEdgeStyle;rounded=0;orthogonalLoop=1;jettySize=auto;html=1;entryX=0;entryY=0.5;entryDx=0;entryDy=0;" edge="1" parent="jFjf1O8naEyMeC0edOcx-139" source="jFjf1O8naEyMeC0edOcx-158" target="jFjf1O8naEyMeC0edOcx-162">
          <mxGeometry relative="1" as="geometry">
            <mxPoint x="401.66999999999996" y="81.5" as="targetPoint" />
          </mxGeometry>
        </mxCell>
        <mxCell id="jFjf1O8naEyMeC0edOcx-158" value="S3" style="outlineConnect=0;dashed=0;verticalLabelPosition=bottom;verticalAlign=top;align=center;html=1;shape=mxgraph.aws3.s3;fillColor=#F58534;gradientColor=none;" vertex="1" parent="jFjf1O8naEyMeC0edOcx-139">
          <mxGeometry x="303.34" y="43.5" width="76.5" height="93" as="geometry" />
        </mxCell>
        <mxCell id="jFjf1O8naEyMeC0edOcx-159" style="edgeStyle=orthogonalEdgeStyle;rounded=0;orthogonalLoop=1;jettySize=auto;html=1;" edge="1" parent="jFjf1O8naEyMeC0edOcx-139" source="jFjf1O8naEyMeC0edOcx-160" target="jFjf1O8naEyMeC0edOcx-158">
          <mxGeometry relative="1" as="geometry" />
        </mxCell>
        <mxCell id="jFjf1O8naEyMeC0edOcx-160" value="" style="ellipse;whiteSpace=wrap;html=1;aspect=fixed;fillColor=#d5e8d4;strokeColor=#82b366;strokeWidth=3;" vertex="1" parent="jFjf1O8naEyMeC0edOcx-139">
          <mxGeometry x="223.33999999999997" y="70" width="40" height="40" as="geometry" />
        </mxCell>
        <mxCell id="jFjf1O8naEyMeC0edOcx-169" value="" style="edgeStyle=orthogonalEdgeStyle;rounded=0;orthogonalLoop=1;jettySize=auto;html=1;" edge="1" parent="jFjf1O8naEyMeC0edOcx-139" source="jFjf1O8naEyMeC0edOcx-161" target="jFjf1O8naEyMeC0edOcx-168">
          <mxGeometry relative="1" as="geometry" />
        </mxCell>
        <mxCell id="jFjf1O8naEyMeC0edOcx-161" value="Security group" style="fillColor=none;strokeColor=#DD3522;verticalAlign=top;fontStyle=0;fontColor=#DD3522;whiteSpace=wrap;html=1;" vertex="1" parent="jFjf1O8naEyMeC0edOcx-139">
          <mxGeometry x="523.34" y="59.08" width="100" height="60" as="geometry" />
        </mxCell>
        <mxCell id="jFjf1O8naEyMeC0edOcx-163" value="" style="edgeStyle=orthogonalEdgeStyle;rounded=0;orthogonalLoop=1;jettySize=auto;html=1;" edge="1" parent="jFjf1O8naEyMeC0edOcx-139" source="jFjf1O8naEyMeC0edOcx-162" target="jFjf1O8naEyMeC0edOcx-161">
          <mxGeometry relative="1" as="geometry" />
        </mxCell>
        <mxCell id="jFjf1O8naEyMeC0edOcx-162" value="Remote State" style="html=1;align=center;verticalAlign=middle;rounded=1;absoluteArcSize=1;arcSize=10;dashed=1;whiteSpace=wrap;" vertex="1" parent="jFjf1O8naEyMeC0edOcx-139">
          <mxGeometry x="408.34" y="73.25" width="93.33" height="33.5" as="geometry" />
        </mxCell>
        <mxCell id="jFjf1O8naEyMeC0edOcx-164" value="" style="outlineConnect=0;dashed=0;verticalLabelPosition=bottom;verticalAlign=top;align=center;html=1;shape=mxgraph.aws3.virtual_private_cloud;fillColor=#F58534;gradientColor=none;" vertex="1" parent="jFjf1O8naEyMeC0edOcx-139">
          <mxGeometry x="537.62" y="89.09" width="32.39" height="22" as="geometry" />
        </mxCell>
        <mxCell id="jFjf1O8naEyMeC0edOcx-167" value="" style="sketch=0;points=[[0,0,0],[0.25,0,0],[0.5,0,0],[0.75,0,0],[1,0,0],[0,1,0],[0.25,1,0],[0.5,1,0],[0.75,1,0],[1,1,0],[0,0.25,0],[0,0.5,0],[0,0.75,0],[1,0.25,0],[1,0.5,0],[1,0.75,0]];points=[[0,0,0],[0.25,0,0],[0.5,0,0],[0.75,0,0],[1,0,0],[0,1,0],[0.25,1,0],[0.5,1,0],[0.75,1,0],[1,1,0],[0,0.25,0],[0,0.5,0],[0,0.75,0],[1,0.25,0],[1,0.5,0],[1,0.75,0]];outlineConnect=0;fontColor=#232F3E;fillColor=none;strokeColor=#F58534;dashed=0;verticalLabelPosition=bottom;verticalAlign=top;align=center;html=1;fontSize=12;fontStyle=0;aspect=fixed;shape=mxgraph.aws4.resourceIcon;resIcon=mxgraph.aws4.app_config;" vertex="1" parent="jFjf1O8naEyMeC0edOcx-139">
          <mxGeometry x="570.01" y="79.25" width="41.67" height="41.67" as="geometry" />
        </mxCell>
        <mxCell id="jFjf1O8naEyMeC0edOcx-171" value="" style="edgeStyle=orthogonalEdgeStyle;rounded=0;orthogonalLoop=1;jettySize=auto;html=1;" edge="1" parent="jFjf1O8naEyMeC0edOcx-139" source="jFjf1O8naEyMeC0edOcx-168" target="jFjf1O8naEyMeC0edOcx-170">
          <mxGeometry relative="1" as="geometry" />
        </mxCell>
        <mxCell id="jFjf1O8naEyMeC0edOcx-168" value="RDS&lt;br&gt;&lt;font color=&quot;#4d4d4d&quot; style=&quot;font-size: 10px;&quot;&gt;postgres&lt;/font&gt;" style="outlineConnect=0;dashed=0;verticalLabelPosition=bottom;verticalAlign=top;align=center;html=1;shape=mxgraph.aws3.rds;fillColor=#2E73B8;gradientColor=none;" vertex="1" parent="jFjf1O8naEyMeC0edOcx-139">
          <mxGeometry x="663.34" y="48.58" width="72" height="81" as="geometry" />
        </mxCell>
        <mxCell id="jFjf1O8naEyMeC0edOcx-170" value="" style="ellipse;whiteSpace=wrap;html=1;aspect=fixed;fillColor=#f8cecc;strokeColor=#b85450;strokeWidth=3;" vertex="1" parent="jFjf1O8naEyMeC0edOcx-139">
          <mxGeometry x="773.3399999999999" y="69.08" width="40" height="40" as="geometry" />
        </mxCell>
      </root>
    </mxGraphModel>
  </diagram>
</mxfile>
